<?xml version="1.0" encoding="UTF-8"?>
<svg version="1.1" xmlns="http://www.w3.org/2000/svg" width="1024" height="768">
<path d="M0 0 C0.870802 0.00304138 1.741604 0.00608276 2.63879395 0.00921631 C16.16330845 0.0788601 29.07788826 0.86795902 42.1875 4.4375 C43.05197754 4.66775879 43.91645508 4.89801758 44.80712891 5.13525391 C50.66258625 6.72521692 56.43396341 8.51354251 62.1875 10.4375 C63.34378906 10.81519531 64.50007812 11.19289063 65.69140625 11.58203125 C101.00360194 24.08935463 129.97147799 52.01623423 146.37084961 85.26928711 C155.48337445 104.44714552 160.12370301 124.75312699 160.50048828 145.94238281 C160.52171659 146.95981127 160.54294489 147.97723972 160.56481647 149.02549934 C160.63365938 152.39713553 160.69608955 155.76885142 160.7578125 159.140625 C160.80405411 161.54180024 160.85036611 163.94297412 160.89674377 166.34414673 C161.03154996 173.45631574 161.15642565 180.56863532 161.27805662 187.68104076 C161.31248368 189.68654958 161.34739037 191.69204953 161.38241959 193.69754791 C162.18580158 239.81767376 162.2410241 285.88710424 161.31167316 332.00650311 C161.19093309 338.06957074 161.09783087 344.13273538 161.01231384 350.19641113 C160.94779891 354.74215566 160.87523673 359.28773923 160.79971313 363.83331299 C160.76748668 365.80508161 160.73723307 367.77688386 160.70932007 369.74871826 C160.09814551 410.81542386 145.41585453 447.20914547 116.1875 476.4375 C112.65742674 479.63484176 108.98639352 482.56677406 105.1875 485.4375 C104.66849121 485.83678711 104.14948242 486.23607422 103.61474609 486.64746094 C67.76900041 514.08600304 21.21391908 523.81376263 -23.21875 518.6640625 C-63.51956699 513.06672681 -103.28063615 494.6317295 -128.80078125 462.1015625 C-129.46464844 461.22242188 -130.12851562 460.34328125 -130.8125 459.4375 C-131.70001953 458.27347656 -131.70001953 458.27347656 -132.60546875 457.0859375 C-149.35501061 434.1655118 -159.56575281 406.53931331 -160.09375 378.08203125 C-160.11188751 377.26626617 -160.13002502 376.4505011 -160.14871216 375.61001587 C-160.20851221 372.82342331 -160.26114481 370.03676053 -160.3125 367.25 C-160.33173523 366.24566925 -160.35097046 365.2413385 -160.37078857 364.20657349 C-160.50680101 357.03043884 -160.62778315 349.85409881 -160.74353027 342.6776123 C-160.7907604 339.75449251 -160.83949358 336.83140252 -160.88928223 333.9083252 C-161.61615693 291.16129662 -161.95804918 248.43907916 -161.4375 205.6875 C-161.42678719 204.78675121 -161.41607437 203.88600243 -161.40503693 202.95795822 C-161.18864281 184.8821734 -160.89933255 166.80779765 -160.41117477 148.73709869 C-160.37215431 147.28554333 -160.33454464 145.83394918 -160.29851151 144.38231659 C-160.03884686 134.12055036 -159.37190355 124.39899598 -156.8125 114.4375 C-156.63702637 113.74495117 -156.46155273 113.05240234 -156.28076172 112.33886719 C-149.79594631 87.23888279 -137.60038481 66.25568818 -119.8125 47.4375 C-119.06613281 46.62667969 -118.31976563 45.81585938 -117.55078125 44.98046875 C-99.23712153 25.75869367 -74.52348329 13.54829933 -49.3125 6.125 C-48.54397705 5.89466064 -47.7754541 5.66432129 -46.98364258 5.42700195 C-31.55069267 1.13087482 -15.95132021 -0.11917697 0 0 Z M-103.8125 44.4375 C-104.32796387 44.87320313 -104.84342773 45.30890625 -105.37451172 45.7578125 C-124.73605022 62.34821943 -137.79255932 83.4087326 -146.0625 107.375 C-146.29678711 108.04128418 -146.53107422 108.70756836 -146.77246094 109.39404297 C-150.97434939 122.17755008 -152.26533619 135.09224375 -152.32421875 148.46484375 C-152.34123423 149.96914507 -152.35944536 151.47343327 -152.37875366 152.97770691 C-152.42623867 156.9581898 -152.45626142 160.93861482 -152.48225784 164.91928864 C-152.50608443 168.21715329 -152.54054617 171.5148711 -152.57517529 174.81263733 C-152.85693309 201.68657448 -152.94081518 228.5623799 -152.8125 255.4375 C-151.6399869 254.48632866 -150.47462985 253.52632991 -149.3125 252.5625 C-148.6628125 252.02882813 -148.013125 251.49515625 -147.34375 250.9453125 C-146.8384375 250.44773437 -146.333125 249.95015625 -145.8125 249.4375 C-145.8125 248.7775 -145.8125 248.1175 -145.8125 247.4375 C-145.1525 247.4375 -144.4925 247.4375 -143.8125 247.4375 C-141.99258917 245.42932253 -140.34144795 243.31563661 -138.6640625 241.1875 C-136.8125 239.4375 -136.8125 239.4375 -132.8125 239.4375 C-130.953125 240.7578125 -130.953125 240.7578125 -129.0625 242.5625 C-125.14152987 246.26929949 -121.25250774 249.10749419 -116.8125 252.4375 C-116.8125 213.1675 -116.8125 173.8975 -116.8125 133.4375 C-105.2625 133.4375 -93.7125 133.4375 -81.8125 133.4375 C-81.8125 122.2175 -81.8125 110.9975 -81.8125 99.4375 C-76.5325 99.4375 -71.2525 99.4375 -65.8125 99.4375 C-65.8125 90.1975 -65.8125 80.9575 -65.8125 71.4375 C-63.57855469 71.59992188 -61.34460938 71.76234375 -59.04296875 71.9296875 C-37.1346439 73.22181425 -37.1346439 73.22181425 -18.37182617 62.85693359 C-17.07184414 61.64984122 -15.79288918 60.41951367 -14.54101562 59.16259766 C-12.10708599 56.73348088 -9.48032634 54.60407325 -6.8125 52.4375 C-10.68007281 47.48217233 -15.00126004 43.47273352 -19.8125 39.4375 C-19.28926383 35.58927569 -18.46382904 33.58480075 -15.7578125 30.80859375 C-15.14292969 30.16599609 -14.52804687 29.52339844 -13.89453125 28.86132812 C-12.92580078 27.8780957 -12.92580078 27.8780957 -11.9375 26.875 C-10.66762141 25.56279213 -9.39933955 24.24903678 -8.1328125 22.93359375 C-7.56836426 22.35794678 -7.00391602 21.7822998 -6.42236328 21.18920898 C-4.74179519 19.36056536 -3.27014735 17.44665239 -1.8125 15.4375 C1.91504769 16.00019745 3.49183505 17.43996205 6.0078125 20.18359375 C6.70777344 20.93833984 7.40773438 21.69308594 8.12890625 22.47070312 C8.84949219 23.26412109 9.57007813 24.05753906 10.3125 24.875 C11.04082031 25.66455078 11.76914062 26.45410156 12.51953125 27.26757812 C13.86859437 28.73010219 15.21417674 30.19584988 16.55517578 31.66577148 C17.73786731 32.94946763 18.9532725 34.2032725 20.1875 35.4375 C20.8125 37.5625 20.8125 37.5625 21.1875 39.4375 C20.63578125 39.664375 20.0840625 39.89125 19.515625 40.125 C16.50057583 41.82475926 14.37519631 43.98554816 11.9375 46.4375 C11.04546875 47.324375 10.1534375 48.21125 9.234375 49.125 C6.96656927 51.17239103 6.96656927 51.17239103 7.1875 53.4375 C8.91271434 54.98348513 8.91271434 54.98348513 11.16796875 56.5546875 C12.00263672 57.16183594 12.83730469 57.76898438 13.69726562 58.39453125 C14.58091797 59.02746094 15.46457031 59.66039062 16.375 60.3125 C18.09828725 61.55902396 19.82096088 62.80639674 21.54296875 64.0546875 C22.31278076 64.60753418 23.08259277 65.16038086 23.87573242 65.72998047 C26.1875 67.4375 26.1875 67.4375 28.48242188 69.62451172 C32.02366557 71.99791205 35.00109112 71.94638172 39.11328125 71.828125 C39.86087204 71.82246521 40.60846283 71.81680542 41.37870789 71.81097412 C43.75313911 71.78868468 46.12602938 71.73850656 48.5 71.6875 C50.11521249 71.66742519 51.73044877 71.64917613 53.34570312 71.6328125 C57.29355733 71.58884486 61.24026792 71.51987261 65.1875 71.4375 C65.17009766 73.33822266 65.17009766 73.33822266 65.15234375 75.27734375 C65.14295581 76.97656101 65.13385669 78.67577989 65.125 80.375 C65.11662109 81.20580078 65.10824219 82.03660156 65.09960938 82.89257812 C65.07783044 88.48976441 65.47590732 93.88483582 66.1875 99.4375 C71.1375 99.4375 76.0875 99.4375 81.1875 99.4375 C81.17009766 102.49064453 81.17009766 102.49064453 81.15234375 105.60546875 C81.1453876 107.58797076 81.13846797 109.57047308 81.13256836 111.55297852 C81.12755546 112.92538222 81.12074342 114.29778062 81.11206055 115.67016602 C81.09986143 117.64857651 81.09477752 119.6270268 81.08984375 121.60546875 C81.08460693 122.79422607 81.07937012 123.9829834 81.07397461 125.20776367 C81.11172093 128.75864993 81.11172093 128.75864993 82.1875 133.4375 C93.7375 133.4375 105.2875 133.4375 117.1875 133.4375 C117.1875 172.7075 117.1875 211.9775 117.1875 252.4375 C121.19626166 249.00141858 125.18791931 245.57558738 129.125 242.0625 C129.89714844 241.37414062 130.66929687 240.68578125 131.46484375 239.9765625 C132.03332031 239.46867188 132.60179687 238.96078125 133.1875 238.4375 C136.33873236 239.82888561 138.42832034 241.45104939 140.82421875 243.9140625 C141.81325195 244.91953125 141.81325195 244.91953125 142.82226562 245.9453125 C143.49966797 246.64398438 144.17707031 247.34265625 144.875 248.0625 C146.23089862 249.45264489 147.58885644 250.84078536 148.94921875 252.2265625 C149.54694092 252.84225098 150.14466309 253.45793945 150.76049805 254.09228516 C151.98192422 255.55182449 151.98192422 255.55182449 153.1875 255.4375 C153.126612 240.38024049 153.04886849 225.32313069 152.95178509 210.26606274 C152.90707473 203.27268685 152.8676053 196.27935908 152.84106445 189.28588867 C152.81538331 182.52301966 152.7743161 175.76037672 152.72431374 168.99764442 C152.70776918 166.43162062 152.69617836 163.8655594 152.68988609 161.29948997 C152.58386333 121.9969395 143.45106711 85.92439572 116.1875 56.4375 C115.48584717 55.67010498 115.48584717 55.67010498 114.77001953 54.88720703 C93.91709293 32.31622263 65.90716066 19.00729815 36.1875 12.4375 C35.06625732 12.18758301 35.06625732 12.18758301 33.92236328 11.93261719 C-13.12122483 1.98643507 -66.88821949 13.20556663 -103.8125 44.4375 Z M-0.8125 26.4375 C-1.8025 27.9225 -1.8025 27.9225 -2.8125 29.4375 C-1.4925 28.7775 -0.1725 28.1175 1.1875 27.4375 C0.5275 27.1075 -0.1325 26.7775 -0.8125 26.4375 Z M-7.8125 34.4375 C-8.8025 35.9225 -8.8025 35.9225 -9.8125 37.4375 C-8.3275 38.4275 -8.3275 38.4275 -6.8125 39.4375 C-6.8125 37.7875 -6.8125 36.1375 -6.8125 34.4375 C-7.1425 34.4375 -7.4725 34.4375 -7.8125 34.4375 Z M-1.8125 35.4375 C-1.4825 36.0975 -1.1525 36.7575 -0.8125 37.4375 C0.1775 37.1075 1.1675 36.7775 2.1875 36.4375 C0.8675 36.1075 -0.4525 35.7775 -1.8125 35.4375 Z M7.1875 35.4375 C7.5175 36.7575 7.8475 38.0775 8.1875 39.4375 C8.1875 38.1175 8.1875 36.7975 8.1875 35.4375 C7.8575 35.4375 7.5275 35.4375 7.1875 35.4375 Z M-8.875 64.375 C-9.63361328 64.93896484 -10.39222656 65.50292969 -11.17382812 66.08398438 C-11.89119141 66.62216797 -12.60855469 67.16035156 -13.34765625 67.71484375 C-14.34357788 68.46109009 -14.34357788 68.46109009 -15.35961914 69.22241211 C-15.83906982 69.62339111 -16.31852051 70.02437012 -16.8125 70.4375 C-16.8125 70.7675 -16.8125 71.0975 -16.8125 71.4375 C-5.9225 71.4375 4.9675 71.4375 16.1875 71.4375 C12.59581795 67.84581795 9.49249466 65.03473265 5.4375 62.125 C4.47328125 61.42761719 3.5090625 60.73023438 2.515625 60.01171875 C-2.0225744 56.94310405 -4.9930532 61.45442346 -8.875 64.375 Z M-57.8125 80.4375 C-57.8125 89.6775 -57.8125 98.9175 -57.8125 108.4375 C-62.7625 108.4375 -67.7125 108.4375 -72.8125 108.4375 C-73.9777759 115.77782061 -73.92552677 123.0185605 -73.875 130.4375 C-73.854375 134.7275 -73.83375 139.0175 -73.8125 143.4375 C-85.3625 143.4375 -96.9125 143.4375 -108.8125 143.4375 C-108.8125 220.3275 -108.8125 297.2175 -108.8125 376.4375 C-96.9325 376.4375 -85.0525 376.4375 -72.8125 376.4375 C-72.8125 387.6575 -72.8125 398.8775 -72.8125 410.4375 C-66.34670287 411.68409848 -66.34670287 411.68409848 -57.8125 411.4375 C-57.8125 420.6775 -57.8125 429.9175 -57.8125 439.4375 C-19.5325 439.4375 18.7475 439.4375 58.1875 439.4375 C58.1875 430.1975 58.1875 420.9575 58.1875 411.4375 C61.1575 411.4375 64.1275 411.4375 67.1875 411.4375 C69.1675 411.1075 71.1475 410.7775 73.1875 410.4375 C73.1875 399.2175 73.1875 387.9975 73.1875 376.4375 C85.0675 376.4375 96.9475 376.4375 109.1875 376.4375 C109.21031512 353.73610781 109.2286323 331.03472529 109.23931217 308.33332443 C109.24440885 297.78617686 109.25134719 287.23903713 109.26293945 276.69189453 C109.27608624 264.49772195 109.28436195 252.30355498 109.28515625 240.109375 C109.28522061 239.12133818 109.28528497 238.13330135 109.28535128 237.11532402 C109.28414824 205.87748419 109.02453941 174.66558149 108.1875 143.4375 C96.6375 143.4375 85.0875 143.4375 73.1875 143.4375 C73.1875 131.8875 73.1875 120.3375 73.1875 108.4375 C68.2375 108.4375 63.2875 108.4375 58.1875 108.4375 C58.20490234 106.53677734 58.20490234 106.53677734 58.22265625 104.59765625 C58.23204419 102.89843899 58.24114331 101.19922011 58.25 99.5 C58.25837891 98.66919922 58.26675781 97.83839844 58.27539062 96.98242188 C58.27861328 96.15419922 58.28183594 95.32597656 58.28515625 94.47265625 C58.29039307 93.7237915 58.29562988 92.97492676 58.30102539 92.20336914 C58.139465 88.26720209 57.62254293 84.35288638 57.1875 80.4375 C19.2375 80.4375 -18.7125 80.4375 -57.8125 80.4375 Z M-134.8125 249.4375 C-135.8025 250.9225 -135.8025 250.9225 -136.8125 252.4375 C-134.8325 252.4375 -132.8525 252.4375 -130.8125 252.4375 C-132.1325 251.4475 -133.4525 250.4575 -134.8125 249.4375 Z M133.1875 249.4375 C132.1975 250.9225 132.1975 250.9225 131.1875 252.4375 C132.8375 252.4375 134.4875 252.4375 136.1875 252.4375 C135.8575 251.4475 135.5275 250.4575 135.1875 249.4375 C134.5275 249.4375 133.8675 249.4375 133.1875 249.4375 Z M-127.8125 255.4375 C-127.8125 258.4075 -127.8125 261.3775 -127.8125 264.4375 C-126.1625 262.7875 -124.5125 261.1375 -122.8125 259.4375 C-124.4625 258.1175 -126.1125 256.7975 -127.8125 255.4375 Z M-141.8125 256.4375 C-142.4725 257.7575 -143.1325 259.0775 -143.8125 260.4375 C-142.3275 261.4275 -142.3275 261.4275 -140.8125 262.4375 C-140.8125 260.4575 -140.8125 258.4775 -140.8125 256.4375 C-141.1425 256.4375 -141.4725 256.4375 -141.8125 256.4375 Z M125.1875 256.4375 C124.5275 257.7575 123.8675 259.0775 123.1875 260.4375 C124.5075 261.4275 125.8275 262.4175 127.1875 263.4375 C127.1875 261.1275 127.1875 258.8175 127.1875 256.4375 C126.5275 256.4375 125.8675 256.4375 125.1875 256.4375 Z M141.1875 257.4375 C140.8575 259.4175 140.5275 261.3975 140.1875 263.4375 C141.5075 262.1175 142.8275 260.7975 144.1875 259.4375 C143.1975 258.7775 142.2075 258.1175 141.1875 257.4375 Z M-135.8125 258.4375 C-135.4825 259.4275 -135.1525 260.4175 -134.8125 261.4375 C-134.1525 261.1075 -133.4925 260.7775 -132.8125 260.4375 C-132.8125 259.7775 -132.8125 259.1175 -132.8125 258.4375 C-133.8025 258.4375 -134.7925 258.4375 -135.8125 258.4375 Z M132.1875 258.4375 C132.5175 259.4275 132.8475 260.4175 133.1875 261.4375 C133.8475 261.1075 134.5075 260.7775 135.1875 260.4375 C135.1875 259.7775 135.1875 259.1175 135.1875 258.4375 C134.1975 258.4375 133.2075 258.4375 132.1875 258.4375 Z M152.1875 263.4375 C151.16052769 264.55922274 150.16712311 265.71169755 149.1875 266.875 C146.349453 270.14021696 143.47709019 273.36052307 140.5 276.5 C139.77425781 277.27472656 139.04851562 278.04945313 138.30078125 278.84765625 C136.1875 280.4375 136.1875 280.4375 134.23950195 280.19335938 C130.87503141 278.95404935 128.58765918 276.33564781 126.0625 273.875 C122.66340673 270.0111507 122.66340673 270.0111507 118.1875 268.4375 C117.8575 267.7775 117.5275 267.1175 117.1875 266.4375 C117.1875 305.7075 117.1875 344.9775 117.1875 385.4375 C105.6375 385.4375 94.0875 385.4375 82.1875 385.4375 C82.1875 396.6575 82.1875 407.8775 82.1875 419.4375 C76.9075 419.4375 71.6275 419.4375 66.1875 419.4375 C65.8575 429.0075 65.5275 438.5775 65.1875 448.4375 C61.83658203 448.19386719 61.83658203 448.19386719 58.41796875 447.9453125 C36.45374027 446.66258074 36.45374027 446.66258074 17.65893555 457.10595703 C16.36103198 458.31156732 15.08356205 459.53977848 13.83349609 460.79492188 C11.7599335 462.86417865 9.51108012 464.6577365 7.1875 466.4375 C8.61359159 469.79952939 10.33098515 471.67425579 13.125 474 C14.48377978 475.14035911 15.83821017 476.28592789 17.1875 477.4375 C17.78691406 477.92089844 18.38632812 478.40429688 19.00390625 478.90234375 C20.1875 480.4375 20.1875 480.4375 20.125 482.3359375 C18.89890889 485.08442508 17.24697864 486.86715297 15.1875 489.0625 C14.38441406 489.92875 13.58132813 490.795 12.75390625 491.6875 C11.90699219 492.595 11.06007813 493.5025 10.1875 494.4375 C8.49635016 496.3092087 6.80866363 498.18405436 5.125 500.0625 C3.8125 501.52083333 2.5 502.97916667 1.1875 504.4375 C-3.16448942 502.80941763 -5.72956256 499.55862494 -8.75 496.1875 C-9.26240234 495.62675781 -9.77480469 495.06601562 -10.30273438 494.48828125 C-11.32156566 493.36717847 -12.33261375 492.23894931 -13.33544922 491.10351562 C-14.31996161 489.99305074 -15.32182811 488.89773266 -16.34033203 487.81835938 C-19.79856194 484.01968196 -19.79856194 484.01968196 -19.86328125 481.31640625 C-18.5300168 478.93239064 -16.96830977 477.27027416 -15 475.375 C-14.31292969 474.70339844 -13.62585938 474.03179688 -12.91796875 473.33984375 C-10.95895285 471.56982382 -8.95243593 469.98113918 -6.8125 468.4375 C-8.25729966 464.91985217 -9.99460544 463.26483023 -13.05859375 461.0546875 C-13.89583984 460.44496094 -14.73308594 459.83523438 -15.59570312 459.20703125 C-16.47162109 458.58183594 -17.34753906 457.95664062 -18.25 457.3125 C-19.12205078 456.67957031 -19.99410156 456.04664063 -20.89257812 455.39453125 C-28.90881032 449.53277876 -28.90881032 449.53277876 -38.54296875 448.2421875 C-39.29338943 448.2450174 -40.04381012 448.24784729 -40.81697083 448.25076294 C-43.21147675 448.26194938 -45.60560731 448.28705072 -48 448.3125 C-49.62434355 448.32253181 -51.24869297 448.33165731 -52.87304688 448.33984375 C-56.8531252 448.3601814 -60.83239291 448.39933168 -64.8125 448.4375 C-65.1425 438.8675 -65.4725 429.2975 -65.8125 419.4375 C-71.0925 419.4375 -76.3725 419.4375 -81.8125 419.4375 C-81.8125 408.2175 -81.8125 396.9975 -81.8125 385.4375 C-93.3625 385.4375 -104.9125 385.4375 -116.8125 385.4375 C-116.8125 346.1675 -116.8125 306.8975 -116.8125 266.4375 C-117.1425 267.0975 -117.4725 267.7575 -117.8125 268.4375 C-118.3796875 268.70175781 -118.946875 268.96601563 -119.53125 269.23828125 C-123.70844215 271.43416822 -126.81171981 275.13316231 -130.15625 278.41796875 C-132.8125 280.4375 -132.8125 280.4375 -134.7512207 280.27490234 C-137.25393776 279.25816427 -138.57586735 278.00074267 -140.44921875 276.05859375 C-141.10857422 275.38505859 -141.76792969 274.71152344 -142.44726562 274.01757812 C-143.46336914 272.95700195 -143.46336914 272.95700195 -144.5 271.875 C-145.85600961 270.47586193 -147.21397346 269.07861424 -148.57421875 267.68359375 C-149.17194092 267.06154053 -149.76966309 266.4394873 -150.38549805 265.79858398 C-151.60443285 264.32246734 -151.60443285 264.32246734 -152.8125 264.4375 C-152.84547313 288.70242797 -152.85033395 312.96757761 -152.62859344 337.23170853 C-152.58878302 341.61738272 -152.55665204 346.00283715 -152.54150391 350.38867188 C-152.63820702 378.17184438 -152.63820702 378.17184438 -147.8125 405.4375 C-147.52856384 406.47173851 -147.52856384 406.47173851 -147.2388916 407.52687073 C-137.45315386 442.35705945 -113.85840702 471.65339467 -82.7265625 489.7487793 C-60.43633892 502.17930051 -35.2904049 509.19006549 -9.8125 510.4375 C-9.03165039 510.47601074 -8.25080078 510.51452148 -7.44628906 510.55419922 C31.93061973 512.15962694 72.84799729 501.30350326 103.1875 475.4375 C103.98285156 474.76332031 104.77820313 474.08914063 105.59765625 473.39453125 C131.94034738 450.39048104 147.87988502 419.03843249 152.1875 384.4375 C152.29725449 381.90713463 152.36260429 379.37460529 152.39282227 376.84204102 C152.40272186 376.11523132 152.41262146 375.38842163 152.42282104 374.6395874 C152.45431867 372.24022592 152.47923103 369.84084686 152.50390625 367.44140625 C152.52456768 365.73119207 152.54556583 364.02098193 152.56687927 362.31077576 C152.61082119 358.70712894 152.65168368 355.10346483 152.69018555 351.49975586 C152.7382125 347.01280758 152.79208765 342.52595673 152.84815407 338.03910255 C153.15683404 313.17121974 153.24512282 288.30712809 153.1875 263.4375 C152.8575 263.4375 152.5275 263.4375 152.1875 263.4375 Z M-135.8125 268.4375 C-134.4925 268.4375 -133.1725 268.4375 -131.8125 268.4375 C-131.4825 267.7775 -131.1525 267.1175 -130.8125 266.4375 C-133.13607511 266.25259993 -133.13607511 266.25259993 -135.8125 268.4375 Z M132.1875 268.4375 C133.5075 268.4375 134.8275 268.4375 136.1875 268.4375 C136.5175 267.7775 136.8475 267.1175 137.1875 266.4375 C134.86392489 266.25259993 134.86392489 266.25259993 132.1875 268.4375 Z M-15.8125 448.4375 C-12.73347456 451.51652544 -9.80805643 454.17461753 -6.375 456.8125 C-5.44816406 457.54210937 -4.52132812 458.27171875 -3.56640625 459.0234375 C-0.9476853 460.72864137 -0.9476853 460.72864137 1.640625 459.94921875 C4.74387301 458.10726019 7.64337717 456.07213518 10.5 453.875 C11.32467773 453.2572168 11.32467773 453.2572168 12.16601562 452.62695312 C13.52883045 451.5925682 14.86125704 450.51837744 16.1875 449.4375 C16.1875 449.1075 16.1875 448.7775 16.1875 448.4375 C5.6275 448.4375 -4.9325 448.4375 -15.8125 448.4375 Z M-0.8125 473.4375 C-1.1425 474.0975 -1.4725 474.7575 -1.8125 475.4375 C-0.4925 475.1075 0.8275 474.7775 2.1875 474.4375 C1.1975 474.1075 0.2075 473.7775 -0.8125 473.4375 Z M-7.8125 480.4375 C-7.8125 481.7575 -7.8125 483.0775 -7.8125 484.4375 C-7.4825 483.1175 -7.1525 481.7975 -6.8125 480.4375 C-7.1425 480.4375 -7.4725 480.4375 -7.8125 480.4375 Z M7.1875 480.4375 C7.5175 481.7575 7.8475 483.0775 8.1875 484.4375 C8.1875 483.1175 8.1875 481.7975 8.1875 480.4375 C7.8575 480.4375 7.5275 480.4375 7.1875 480.4375 Z M-0.8125 481.4375 C-0.8125 482.4275 -0.8125 483.4175 -0.8125 484.4375 C0.1775 484.1075 1.1675 483.7775 2.1875 483.4375 C1.8575 482.7775 1.5275 482.1175 1.1875 481.4375 C0.5275 481.4375 -0.1325 481.4375 -0.8125 481.4375 Z M-1.8125 490.4375 C-1.4825 491.0975 -1.1525 491.7575 -0.8125 492.4375 C0.1775 492.1075 1.1675 491.7775 2.1875 491.4375 C0.8675 491.1075 -0.4525 490.7775 -1.8125 490.4375 Z " fill="#000000" transform="translate(511.8125,70.5625)"/>
<path d="M0 0 C3.11691068 0.02918272 6.23212895 0.02048879 9.34912109 0.00756836 C25.95370228 0.02422839 42.26093068 1.55386933 58.29052734 6.09155273 C59.64138428 6.46896606 59.64138428 6.46896606 61.01953125 6.85400391 C101.10022428 18.56018857 136.83426053 44.80797144 157.35302734 81.46655273 C169.8939363 104.89157244 176.30847805 128.99641894 176.66503906 155.59155273 C176.69577452 157.54313797 176.69577452 157.54313797 176.72713089 159.53414917 C176.78238697 163.09752255 176.83116724 166.66095599 176.87799311 170.22444916 C176.90794909 172.48422365 176.93938505 174.74397351 176.97115707 177.00372314 C177.42946804 209.89171314 177.50782355 242.77776634 177.48159671 275.66845703 C177.47779998 280.9823469 177.47921903 286.2962182 177.48339844 291.61010742 C177.50533734 320.55519559 177.51558411 349.50368942 177.08102036 378.44616699 C177.04949458 380.62131878 177.02221249 382.7965374 176.99975967 384.97180176 C176.82363785 401.06332911 175.36762965 416.28029063 170.54052734 431.71655273 C170.28335937 432.55444336 170.02619141 433.39233398 169.76123047 434.25561523 C167.52888177 441.31657219 164.69862069 447.85460379 161.35302734 454.46655273 C160.90443359 455.44495117 160.45583984 456.42334961 159.99365234 457.43139648 C142.97200754 493.81755292 108.14677433 519.76143623 71.27929688 533.44116211 C62.7924247 536.41503689 54.14488301 538.60617065 45.35302734 540.46655273 C44.52561035 540.64444336 43.69819336 540.82233398 42.84570312 541.00561523 C17.29334616 546.18910805 -13.17863966 545.94212033 -38.64697266 540.46655273 C-40.01764893 540.17651367 -40.01764893 540.17651367 -41.41601562 539.88061523 C-84.80630196 530.35753122 -122.83668263 505.99400379 -147.28955078 468.65112305 C-150.90437025 462.83360424 -153.77802968 456.67475721 -156.64697266 450.46655273 C-157.33339844 449.14397461 -157.33339844 449.14397461 -158.03369141 447.79467773 C-161.13993491 441.64098397 -162.99859032 435.2103038 -164.83447266 428.59155273 C-165.20983154 427.24552979 -165.20983154 427.24552979 -165.59277344 425.87231445 C-169.42610284 411.48501796 -170.05296846 397.54909144 -170.26416016 382.74780273 C-170.29181772 381.08692879 -170.29181772 381.08692879 -170.32003403 379.39250183 C-170.91717398 343.23595128 -170.7974704 307.06873013 -170.77554297 270.90854168 C-170.77120675 262.93157604 -170.77429969 254.95462625 -170.77917016 246.97766161 C-170.78376598 239.12214994 -170.78432167 231.26664492 -170.78173149 223.41113234 C-170.78020754 218.7868459 -170.77986392 214.16256998 -170.78326797 209.5382843 C-170.79439494 191.87091342 -170.72793645 174.20884935 -170.29902625 156.54589939 C-170.26053044 154.96058044 -170.22394728 153.37521362 -170.18949723 151.7898016 C-169.92530979 140.01241375 -168.93874328 128.82095381 -165.64697266 117.46655273 C-165.42299805 116.64977051 -165.19902344 115.83298828 -164.96826172 114.99145508 C-159.41833862 95.1299596 -150.24556029 76.06890577 -136.64697266 60.46655273 C-135.90962891 59.60416992 -135.17228516 58.74178711 -134.41259766 57.85327148 C-132.20730136 55.3390773 -129.94511295 52.89601533 -127.64697266 50.46655273 C-126.82841797 49.58354492 -126.00986328 48.70053711 -125.16650391 47.79077148 C-93.02325876 14.22315801 -45.5176462 -0.46300082 0 0 Z M-42.64697266 13.46655273 C-44.02143761 13.78398261 -45.39642068 14.09917943 -46.77197266 14.41186523 C-86.02642889 23.98416092 -120.4179181 48.04717895 -141.64697266 82.46655273 C-155.1662589 104.80508167 -161.58415616 128.90011292 -161.96337891 154.93139648 C-161.98425064 156.18242157 -162.00512238 157.43344666 -162.02662659 158.72238159 C-162.08331228 162.2092612 -162.13273322 165.69620711 -162.17960358 169.18323135 C-162.20977973 171.42688456 -162.24118978 173.67051844 -162.27264404 175.91415405 C-163.11876662 237.44082221 -163.0432951 299.00272182 -162.20947266 360.52905273 C-162.19961586 361.28132267 -162.18975906 362.03359261 -162.17960358 362.8086586 C-161.50863472 413.96659485 -153.31632228 455.19117299 -115.89697266 492.18530273 C-92.13263059 514.56799701 -61.46146432 527.04259212 -29.64697266 532.46655273 C-27.70177734 532.80879883 -27.70177734 532.80879883 -25.71728516 533.15795898 C19.92897664 539.8322079 71.14622379 531.5233532 108.72021484 503.66064453 C114.87864304 498.92119628 120.69712225 493.79034952 126.35302734 488.46655273 C126.95373047 487.91870117 127.55443359 487.37084961 128.17333984 486.80639648 C145.90286313 470.02519653 158.32186808 445.88853044 164.35302734 422.46655273 C164.63919922 421.37342773 164.92537109 420.28030273 165.22021484 419.15405273 C169.64033512 400.63164394 168.63784845 380.99830262 168.88565826 362.059021 C168.915947 359.74701936 168.94728047 357.43503341 168.97869873 355.12304688 C169.65284328 304.84189153 169.61969754 254.55958219 168.91552734 204.27905273 C168.90567055 203.56328064 168.89581375 202.84750854 168.88565826 202.11004639 C168.7443259 191.89479435 168.56572961 181.68057863 168.35302734 171.46655273 C168.3377021 170.71041939 168.32237686 169.95428604 168.30658722 169.17523956 C168.20932999 164.40594278 168.10235101 159.63700775 167.98344231 154.8682003 C167.94657441 153.35152628 167.91211564 151.83479137 167.88031197 150.3180027 C167.64443354 139.26328333 166.65049536 129.03850256 163.35302734 118.46655273 C162.99208984 117.21229492 162.63115234 115.95803711 162.25927734 114.66577148 C150.56231935 76.61114126 123.6133686 46.38358741 88.81152344 27.73754883 C78.39079453 22.3502286 67.64183801 18.31691333 56.35302734 15.15405273 C55.12845825 14.808302 55.12845825 14.808302 53.87915039 14.45556641 C37.23110981 10.07433373 20.7559126 8.9225536 3.60302734 9.02905273 C2.59343964 9.03142944 1.58385193 9.03380615 0.54367065 9.03625488 C-14.23531553 9.09070185 -28.27406409 9.76266461 -42.64697266 13.46655273 Z " fill="#000000" transform="translate(508.64697265625,58.533447265625)"/>
<path d="M0 0 C0.90185532 0.00202423 1.80371063 0.00404846 2.7328949 0.00613403 C3.67753098 0.00438171 4.62216705 0.00262939 5.59542847 0.00082397 C8.73436797 -0.00359624 11.87325164 -0.00065595 15.01219177 0.00271606 C17.18313101 0.00204307 19.35407018 0.00107309 21.52500916 -0.00018311 C26.08145361 -0.00166031 30.6378785 0.0004952 35.19432068 0.00515747 C41.04920763 0.01085477 46.90404875 0.00757588 52.75893402 0.00158501 C57.24374235 -0.00202 61.72853973 -0.0008823 66.21334839 0.0017128 C68.37282313 0.00238224 70.53229886 0.00155307 72.69177246 -0.00076675 C75.70420485 -0.00329229 78.7165619 0.00054592 81.72898865 0.00613403 C82.63084396 0.0041098 83.53269928 0.00208557 84.46188354 0 C90.61667946 0.02126625 90.61667946 0.02126625 91.73094177 1.13552856 C91.81877719 3.35408121 91.83788786 5.57541353 91.82859802 7.79568481 C91.8264756 8.79238441 91.8264756 8.79238441 91.8243103 9.80921936 C91.81869695 11.93886755 91.80614231 14.06841196 91.79344177 16.19802856 C91.78842849 17.63878226 91.78386528 19.07953759 91.7797699 20.52029419 C91.76872322 24.05873958 91.75144969 27.59712395 91.73094177 31.13552856 C93.33775818 31.11812622 93.33775818 31.11812622 94.97703552 31.10037231 C96.3741692 31.09099558 97.77130476 31.08189525 99.16844177 31.07302856 C99.87549255 31.06464966 100.58254333 31.05627075 101.3110199 31.04763794 C103.11787737 31.03899269 104.9248178 31.08332845 106.73094177 31.13552856 C108.60997425 33.01456105 107.86147652 36.22358917 107.86375427 38.72537231 C107.864711 39.38509537 107.86566772 40.04481842 107.86665344 40.72453308 C107.86733513 42.12251887 107.86548163 43.52050781 107.86131287 44.91848755 C107.85597283 47.06056839 107.86125377 49.20243874 107.86766052 51.34451294 C107.86699957 52.7006332 107.86571806 54.05675332 107.86375427 55.41287231 C107.86262634 56.65286987 107.86149841 57.89286743 107.8603363 59.17044067 C107.73094177 62.13552856 107.73094177 62.13552856 106.73094177 64.13552856 C118.61094177 64.13552856 130.49094177 64.13552856 142.73094177 64.13552856 C143.41659843 67.56381183 143.85559852 70.02242837 143.85119629 73.3813324 C143.85325829 74.60328056 143.85325829 74.60328056 143.85536194 75.84991455 C143.85176666 76.72960907 143.84817139 77.60930359 143.84446716 78.51565552 C143.84461319 79.45272842 143.84475922 80.38980133 143.84490967 81.35527039 C143.84421441 84.44480728 143.83644009 87.53428348 143.82859802 90.62380981 C143.82673247 92.76900703 143.82530921 94.91420467 143.8243103 97.05940247 C143.82049594 102.6998818 143.81067487 108.3403353 143.79960632 113.98080444 C143.78936897 119.7387558 143.7848077 125.49671135 143.7797699 131.25466919 C143.76905164 142.54830032 143.75198818 153.84191229 143.73094177 165.13552856 C136.0884897 161.52556623 130.70795542 154.19293035 125.30516052 147.85818481 C123.31675315 145.68228493 121.04148073 143.9559532 118.73094177 142.13552856 C118.73094177 141.47552856 118.73094177 140.81552856 118.73094177 140.13552856 C118.20082489 139.93105606 117.67070801 139.72658356 117.12452698 139.51591492 C113.7209278 137.55305108 111.16980722 134.82684393 108.43357849 132.04934692 C107.81197845 131.42643265 107.19037842 130.80351837 106.54994202 130.16172791 C104.49886759 128.10416854 102.45485783 126.03973134 100.41062927 123.97537231 C98.98675086 122.54522344 97.56235603 121.11558855 96.13746643 119.68644714 C92.38901294 115.92469258 88.64616755 112.15741128 84.90489197 108.38851929 C78.91036212 102.35085989 72.90908804 96.31992218 66.90459061 90.2921772 C64.80491964 88.18225685 62.70867959 86.06897088 60.61274719 83.95533752 C59.33178471 82.66754959 58.0507136 81.37986969 56.76951599 80.09231567 C55.89205719 79.20475082 55.89205719 79.20475082 54.99687195 78.29925537 C52.14110894 75.35323231 52.14110894 75.35323231 48.73094177 73.13552856 C48.73094177 72.47552856 48.73094177 71.81552856 48.73094177 71.13552856 C48.13281677 70.84677856 47.53469177 70.55802856 46.91844177 70.26052856 C44.73094177 69.13552856 44.73094177 69.13552856 41.73094177 67.13552856 C41.22173187 67.64917969 40.71252197 68.16283081 40.18788147 68.69204712 C35.3960299 73.52391708 30.59941435 78.35101067 25.79735756 83.17273712 C23.32854088 85.65200599 20.86162503 88.13310714 18.39891052 90.61843872 C15.56977602 93.47339308 12.73264886 96.32028238 9.89500427 99.16677856 C9.00850189 100.06360352 8.12199951 100.96042847 7.20863342 101.88442993 C6.38793365 102.70528076 5.56723389 103.52613159 4.72166443 104.37185669 C3.99774506 105.10021729 3.27382568 105.82857788 2.52796936 106.57901001 C0.73094177 108.13552856 0.73094177 108.13552856 -1.26905823 108.13552856 C-1.76405823 109.62052856 -1.76405823 109.62052856 -2.26905823 111.13552856 C-2.92905823 111.13552856 -3.58905823 111.13552856 -4.26905823 111.13552856 C-4.76405823 112.62052856 -4.76405823 112.62052856 -5.26905823 114.13552856 C-6.76748657 115.6151886 -6.76748657 115.6151886 -8.71070862 117.21047974 C-13.80145091 121.53332298 -18.48777344 126.21051476 -23.20265198 130.93630981 C-24.12119461 131.85389572 -25.03973724 132.77148163 -25.9861145 133.71687317 C-27.91302772 135.64232464 -29.83815198 137.56954163 -31.76197815 139.49807739 C-34.22888162 141.97072572 -36.70031359 144.43879175 -39.17306423 146.90559101 C-41.53951944 149.26757571 -43.9021709 151.63334946 -46.26515198 153.99880981 C-47.15359299 154.88522659 -48.042034 155.77164337 -48.95739746 156.68492126 C-50.17985924 157.91211128 -50.17985924 157.91211128 -51.42701721 159.16409302 C-52.14679245 159.88466385 -52.86656769 160.60523468 -53.6081543 161.34764099 C-55.34081619 163.04478866 -55.34081619 163.04478866 -56.26905823 165.13552856 C-56.92905823 165.13552856 -57.58905823 165.13552856 -58.26905823 165.13552856 C-58.26905823 131.80552856 -58.26905823 98.47552856 -58.26905823 64.13552856 C-46.38905823 64.13552856 -34.50905823 64.13552856 -22.26905823 64.13552856 C-22.30865734 53.64929692 -22.30865734 53.64929692 -22.35914612 43.16311646 C-22.36164368 41.86623901 -22.36414124 40.56936157 -22.36671448 39.23318481 C-22.37183044 38.54736328 -22.37694641 37.86154175 -22.38221741 37.15493774 C-22.38252877 35.48137625 -22.3312866 33.80793276 -22.26905823 32.13552856 C-21.26905823 31.13552856 -21.26905823 31.13552856 -18.10890198 31.03787231 C-16.82112854 31.04947388 -15.5333551 31.06107544 -14.20655823 31.07302856 C-12.91620667 31.082052 -11.6258551 31.09107544 -10.29640198 31.10037231 C-9.29737854 31.11197388 -8.2983551 31.12357544 -7.26905823 31.13552856 C-7.27429504 30.23197632 -7.27953186 29.32842407 -7.28492737 28.39749146 C-7.30193508 25.05601367 -7.31449156 21.71458165 -7.32398987 18.37307739 C-7.32902924 16.92482784 -7.33586076 15.4765834 -7.34449768 14.02835083 C-7.3565807 11.95078268 -7.36229034 9.87328159 -7.36671448 7.79568481 C-7.37195129 6.54408569 -7.37718811 5.29248657 -7.38258362 4.00296021 C-7.17541809 -1.22963998 -4.60906191 0.01592538 0 0 Z M1.73094177 10.13552856 C1.40094177 20.36552856 1.07094177 30.59552856 0.73094177 41.13552856 C-4.21905823 41.13552856 -9.16905823 41.13552856 -14.26905823 41.13552856 C-14.26905823 51.36552856 -14.26905823 61.59552856 -14.26905823 72.13552856 C-26.14905823 72.46552856 -38.02905823 72.79552856 -50.26905823 73.13552856 C-50.26905823 96.56552856 -50.26905823 119.99552856 -50.26905823 144.13552856 C-39.09724514 134.55968877 -28.6010774 124.60213316 -18.26905823 114.13552856 C-19.04636292 113.35822388 -19.8236676 112.58091919 -20.62452698 111.78005981 C-23.9467926 108.45779419 -23.9467926 108.45779419 -27.26905823 105.13552856 C-30.6362621 106.52885431 -32.25501063 108.11445717 -34.26905823 111.13552856 C-31.16354157 111.13552856 -29.91644739 110.59615707 -27.26905823 109.13552856 C-25.94905823 110.45552856 -24.62905823 111.77552856 -23.26905823 113.13552856 C-24.65094276 116.34596738 -26.19327726 118.18489222 -28.89405823 120.38552856 C-29.84151917 121.16670044 -29.84151917 121.16670044 -30.80812073 121.96365356 C-31.2902301 122.35037231 -31.77233948 122.73709106 -32.26905823 123.13552856 C-35.85308518 121.60304808 -38.29755956 119.46806846 -41.08155823 116.76052856 C-41.89237854 115.98966919 -42.70319885 115.21880981 -43.53858948 114.42459106 C-45.26905823 112.13552856 -45.26905823 112.13552856 -45.08839417 110.20828247 C-44.09345539 107.69128897 -42.89017764 106.49755291 -40.89015198 104.68240356 C-40.21661682 104.06365356 -39.54308167 103.44490356 -38.84913635 102.80740356 C-38.14208557 102.17318481 -37.43503479 101.53896606 -36.70655823 100.88552856 C-35.64018127 99.91099731 -35.64018127 99.91099731 -34.55226135 98.91677856 C-32.797848 97.31543484 -31.03675574 95.7221758 -29.26905823 94.13552856 C-24.58001234 95.55852969 -21.75295348 98.2924919 -18.45655823 101.76052856 C-17.70342346 102.53396606 -17.70342346 102.53396606 -16.93507385 103.32302856 C-15.70609596 104.58712011 -14.48659822 105.86041663 -13.26905823 107.13552856 C-9.94732422 105.68893518 -7.77869044 103.88405506 -5.23829651 101.31594849 C-4.4571347 100.53140793 -3.6759729 99.74686737 -2.87113953 98.93855286 C-2.03565582 98.08960953 -1.20017212 97.2406662 -0.33937073 96.36599731 C0.52858124 95.49284378 1.3965332 94.61969025 2.29078674 93.72007751 C4.59683345 91.39923069 6.89876497 89.07440961 9.198349 86.74716187 C12.42775379 83.47980855 15.66223906 80.21751024 18.89967346 76.95811462 C20.62096377 75.22463828 22.33957393 73.48849536 24.05513 71.74934387 C28.1257851 67.64492847 32.20367645 63.73264002 36.73094177 60.13552856 C31.45992763 53.72483569 25.63966025 47.94962344 19.73094177 42.13552856 C16.51569872 43.54397574 14.4091031 45.23897642 11.98094177 47.76052856 C11.36734802 48.39216919 10.75375427 49.02380981 10.12156677 49.67459106 C9.66266052 50.15670044 9.20375427 50.63880981 8.73094177 51.13552856 C10.4124625 54.87573355 12.4213365 56.69687205 15.73094177 59.13552856 C15.90369415 55.3372366 15.90369415 55.3372366 15.04344177 52.57302856 C14.94031677 51.76865356 14.83719177 50.96427856 14.73094177 50.13552856 C16.16844177 48.32302856 16.16844177 48.32302856 17.73094177 47.13552856 C21.67233255 48.80304005 24.52022297 51.36263505 27.73094177 54.13552856 C27.31363833 58.9922303 24.93085597 61.58688931 21.66844177 64.94802856 C21.19600037 65.45011841 20.72355896 65.95220825 20.23680115 66.46951294 C19.07685726 67.69975646 17.90505363 68.91879922 16.73094177 70.13552856 C13.45008894 68.70970339 11.37590242 66.9681145 8.91844177 64.38552856 C5.35760604 60.7244817 1.65330746 57.40416664 -2.26905823 54.13552856 C-1.72540281 50.15136766 0.16559363 48.35189628 2.98484802 45.58865356 C4.26585388 44.32214966 4.26585388 44.32214966 5.57273865 43.03005981 C6.47057068 42.1573645 7.36840271 41.28466919 8.29344177 40.38552856 C9.19514099 39.4973645 10.09684021 38.60920044 11.02586365 37.69412231 C13.25431275 35.50104542 15.4894577 33.31526813 17.73094177 31.13552856 C21.75842307 32.9831598 24.44429746 35.66283356 27.48094177 38.82302856 C32.04904769 43.4920871 36.71343761 47.94443685 41.73094177 52.13552856 C44.81312656 50.76613798 46.88220464 49.21301113 49.22703552 46.79959106 C49.86834412 46.14732544 50.50965271 45.49505981 51.1703949 44.82302856 C51.82975037 44.14240356 52.48910583 43.46177856 53.16844177 42.76052856 C61.11079953 34.60731176 61.11079953 34.60731176 65.73094177 31.13552856 C70.95779692 33.43634168 74.53022017 37.48774311 78.54344177 41.44802856 C79.34459412 42.20793091 80.14574646 42.96783325 80.97117615 43.75076294 C81.72334412 44.49261841 82.47551208 45.23447388 83.25047302 45.99880981 C84.28845032 47.00875 84.28845032 47.00875 85.34739685 48.03909302 C86.73094177 50.13552856 86.73094177 50.13552856 86.60765076 52.70608521 C85.29380261 56.34688244 82.72065106 58.64475851 79.98094177 61.26052856 C79.19203552 62.04750122 79.19203552 62.04750122 78.38719177 62.85037231 C75.38243516 65.78819128 72.46303139 68.13125822 68.73094177 70.13552856 C66.69433751 68.23350168 64.67762841 66.31614366 62.66844177 64.38552856 C61.79735779 63.57728638 61.79735779 63.57728638 60.90867615 62.75271606 C59.25828552 61.15115356 59.25828552 61.15115356 56.73094177 58.13552856 C57.1557761 54.32683938 58.77575621 52.85947168 61.66844177 50.44802856 C62.37871521 49.84603638 63.08898865 49.24404419 63.82078552 48.62380981 C65.73094177 47.13552856 65.73094177 47.13552856 67.73094177 46.13552856 C69.06427511 48.80219523 70.39760844 51.4688619 71.73094177 54.13552856 C69.75094177 55.12552856 69.75094177 55.12552856 67.73094177 56.13552856 C68.39094177 57.12552856 69.05094177 58.11552856 69.73094177 59.13552856 C71.71094177 57.15552856 73.69094177 55.17552856 75.73094177 53.13552856 C74.3224946 49.92028551 72.62749392 47.81368989 70.10594177 45.38552856 C69.47430115 44.77193481 68.84266052 44.15834106 68.19187927 43.52615356 C67.7097699 43.06724731 67.22766052 42.60834106 66.73094177 42.13552856 C60.59251259 47.31909099 54.65752514 52.7126512 48.73094177 58.13552856 C50.07170807 61.11775315 51.54972181 63.20313285 53.8603363 65.50784302 C54.49504852 66.14563187 55.12976074 66.78342072 55.78370667 67.4405365 C56.47012238 68.11976669 57.15653809 68.79899689 57.86375427 69.49880981 C58.57442047 70.20901779 59.28508667 70.91922577 60.01728821 71.6509552 C61.52299083 73.15363813 63.03112175 74.65389125 64.54148865 76.15188599 C66.8317048 78.42398334 69.11395488 80.70384179 71.39500427 82.98513794 C72.86328605 84.44849851 74.332022 85.91140355 75.80125427 87.37380981 C76.4755246 88.04696732 77.14979492 88.72012482 77.84449768 89.41368103 C84.17251305 95.67993042 90.86433682 101.47057948 97.73094177 107.13552856 C98.62297302 106.26927856 99.51500427 105.40302856 100.43406677 104.51052856 C101.61586311 103.38500824 102.79818218 102.26003661 103.98094177 101.13552856 C104.86072693 100.27701294 104.86072693 100.27701294 105.75828552 99.40115356 C106.33191833 98.85974731 106.90555115 98.31834106 107.49656677 97.76052856 C108.02024841 97.25779419 108.54393005 96.75505981 109.08348083 96.23709106 C110.73094177 95.13552856 110.73094177 95.13552856 114.73094177 95.13552856 C116.66062927 96.45584106 116.66062927 96.45584106 118.60594177 98.26052856 C119.29687927 98.89345825 119.98781677 99.52638794 120.69969177 100.17849731 C122.53537996 101.94711228 124.32776587 103.74691165 126.10594177 105.57302856 C128.3580694 108.36837414 128.3580694 108.36837414 130.73094177 108.13552856 C129.3288824 112.59662656 127.04269979 114.91092207 123.73094177 118.13552856 C123.73094177 118.79552856 123.73094177 119.45552856 123.73094177 120.13552856 C123.07094177 120.13552856 122.41094177 120.13552856 121.73094177 120.13552856 C121.07094177 121.12552856 120.41094177 122.11552856 119.73094177 123.13552856 C116.38156004 122.56279879 114.86873765 121.57868996 112.60594177 119.07302856 C111.16159476 117.43720652 111.16159476 117.43720652 109.73094177 116.13552856 C109.07094177 116.13552856 108.41094177 116.13552856 107.73094177 116.13552856 C109.20786485 111.45860549 109.20786485 111.45860549 111.85594177 109.82302856 C112.47469177 109.59615356 113.09344177 109.36927856 113.73094177 109.13552856 C114.72094177 110.12552856 115.71094177 111.11552856 116.73094177 112.13552856 C117.72094177 111.80552856 118.71094177 111.47552856 119.73094177 111.13552856 C117.48135843 108.55219627 117.48135843 108.55219627 114.73094177 106.13552856 C110.84279686 105.72009994 110.84279686 105.72009994 108.80906677 107.66677856 C108.20578552 108.31646606 107.60250427 108.96615356 106.98094177 109.63552856 C106.06055115 110.61005981 106.06055115 110.61005981 105.12156677 111.60427856 C104.66266052 112.10959106 104.20375427 112.61490356 103.73094177 113.13552856 C109.0197398 119.60796522 114.89512534 125.45199254 120.80979919 131.34475708 C122.56009054 133.08962575 124.30489503 134.83985639 126.04930115 136.59060669 C127.15770406 137.6983499 128.26641653 138.80578346 129.37547302 139.91287231 C129.89833389 140.43775742 130.42119476 140.96264252 130.9598999 141.50343323 C132.99898151 144.01737108 132.99898151 144.01737108 135.73094177 145.13552856 C135.83101983 121.10755716 135.91634089 97.13986072 134.73094177 73.13552856 C122.85094177 73.13552856 110.97094177 73.13552856 98.73094177 73.13552856 C98.73094177 62.57552856 98.73094177 52.01552856 98.73094177 41.13552856 C91.80094177 40.64052856 91.80094177 40.64052856 84.73094177 40.13552856 C84.40094177 30.23552856 84.07094177 20.33552856 83.73094177 10.13552856 C56.67094177 10.13552856 29.61094177 10.13552856 1.73094177 10.13552856 Z " fill="#000000" transform="translate(469.26905822753906,155.86447143554688)"/>
<path d="M0 0 C4.79037639 4.10603691 9.33405057 8.19716057 13.75805664 12.66040039 C14.39317673 13.29698074 15.02829681 13.9335611 15.68266296 14.58943176 C17.04944822 15.95999717 18.41507798 17.3317157 19.77964973 18.70448494 C21.94277283 20.88046672 24.10908756 23.05322598 26.27622986 25.22520447 C30.87447427 29.8348292 35.46877351 34.44837348 40.0625 39.0625 C45.39226237 44.41591125 50.72365553 49.76767698 56.05929375 55.11523247 C58.18727254 57.24966522 60.31220281 59.38710096 62.43702698 61.52467346 C63.74831489 62.83959568 65.05974441 64.15437671 66.37133789 65.46899414 C67.24820755 66.35361328 67.24820755 66.35361328 68.14279175 67.25610352 C70.80336203 69.91701268 73.47674318 72.42877365 76.41429138 74.78318787 C77.26757523 75.51473587 78.12085907 76.24628387 79 77 C79 77.66 79 78.32 79 79 C79.57524414 79.24927246 80.15048828 79.49854492 80.74316406 79.75537109 C83.32410072 81.17873923 85.04212237 82.81548786 87.109375 84.9140625 C88.24052734 86.05488281 88.24052734 86.05488281 89.39453125 87.21875 C90.17183594 88.0128125 90.94914062 88.806875 91.75 89.625 C92.54277344 90.42679687 93.33554687 91.22859375 94.15234375 92.0546875 C96.10614493 94.03202846 98.05512103 96.01388909 100 98 C103.85027206 96.42035813 106.24625535 93.96855605 109.140625 91.01953125 C109.62650085 90.52845383 110.11237671 90.0373764 110.61297607 89.53141785 C112.16350303 87.96314352 113.70719156 86.38836518 115.25 84.8125 C116.77930931 83.25530129 118.31014947 81.6996917 119.84417725 80.1471405 C121.24748537 78.72618497 122.64586889 77.30037088 124.04394531 75.87426758 C126.101407 73.82636305 128.23744068 71.92470506 130.44873047 70.04467773 C137.12209002 64.25912666 143.25588446 57.88757436 149.4921875 51.640625 C150.88829203 50.24519502 152.28454491 48.84991344 153.68093872 47.45477295 C156.59230456 44.54487449 159.50187118 41.63319226 162.41015625 38.72021484 C166.13921814 34.98542962 169.87278757 31.25518771 173.60769463 27.52624893 C176.48505266 24.65249985 179.36003045 21.77637905 182.23428726 18.8995285 C183.6106844 17.5224644 184.98782446 16.14614244 186.36571884 14.77057648 C188.28514035 12.85368981 190.20133535 10.93363525 192.11669922 9.01269531 C192.68603683 8.44538193 193.25537445 7.87806854 193.84196472 7.29356384 C196.17006547 4.95286941 198.16204083 2.75693876 200 0 C200.66 0 201.32 0 202 0 C202 33.33 202 66.66 202 101 C190.12 101.33 178.24 101.66 166 102 C166 112.56 166 123.12 166 134 C161.05 134 156.1 134 151 134 C151.0309375 137.2175 151.0309375 137.2175 151.0625 140.5 C151.14178935 148.74609246 150.51934389 156.69049768 150 165 C117.66 165 85.32 165 52 165 C51.34197036 154.47152571 50.8993291 144.46977389 51 134 C46.05 134 41.1 134 36 134 C36 123.44 36 112.88 36 102 C24.12 101.67 12.24 101.34 0 101 C0 67.67 0 34.34 0 0 Z M8 21 C8 44.43 8 67.86 8 92 C16.88608857 92.63472061 25.50745476 93.13771638 34.375 93.0625 C37.88125 93.041875 41.3875 93.02125 45 93 C44.67 103.56 44.34 114.12 44 125 C49.28 125 54.56 125 60 125 C60 135.23 60 145.46 60 156 C87.06 156 114.12 156 142 156 C142 145.77 142 135.54 142 125 C147.28 125 152.56 125 158 125 C157.67 114.44 157.34 103.88 157 93 C167.625 93.0625 167.625 93.0625 170.87744141 93.09008789 C178.6838593 93.11177627 186.15012851 92.56070511 194 92 C194 68.57 194 45.14 194 21 C188.59707751 25.57140891 188.59707751 25.57140891 183.53515625 30.40234375 C182.96643799 30.97936035 182.39771973 31.55637695 181.81176758 32.15087891 C181.23450928 32.74046387 180.65725098 33.33004883 180.0625 33.9375 C175.70960183 38.34638957 171.3463809 42.6360068 166.55078125 46.5703125 C164.59823375 48.28361559 164.59823375 48.28361559 162 52 C164.97 54.97 167.94 57.94 171 61 C172.98 59.35 174.96 57.7 177 56 C176.67 55.01 176.34 54.02 176 53 C175.5875 53.515625 175.175 54.03125 174.75 54.5625 C173 56 173 56 170.9375 55.8125 C169 55 169 55 167 53 C167.18010657 50.18801349 167.8866957 49.11785563 169.84765625 47.078125 C170.57855469 46.47484375 171.30945313 45.8715625 172.0625 45.25 C172.79597656 44.63640625 173.52945313 44.0228125 174.28515625 43.390625 C174.85105469 42.93171875 175.41695312 42.4728125 176 42 C188.46721311 52.40163934 188.46721311 52.40163934 190 57 C189.12794922 57.37705078 189.12794922 57.37705078 188.23828125 57.76171875 C184.98787708 59.55993537 182.81623066 62.14228608 180.29296875 64.83203125 C177.4503158 67.51971845 174.18338714 69.72615204 171 72 C166.05 67.38 161.1 62.76 156 58 C151.92958227 61.48892948 148.09751094 64.77757261 144.34985352 68.53662109 C143.50951065 69.37703949 142.66916779 70.21745789 141.80335999 71.08334351 C140.47950539 72.41494003 140.47950539 72.41494003 139.12890625 73.7734375 C138.206577 74.6971817 137.28424774 75.6209259 136.33396912 76.57266235 C133.90366186 79.00675431 131.47637504 81.44383597 129.04974365 83.8815918 C126.56430636 86.3773311 124.07597068 88.87017708 121.58789062 91.36328125 C116.72244904 96.2393886 111.86019802 101.11866631 107 106 C107.93568737 107.10852263 108.87383671 108.21496738 109.81298828 109.32055664 C110.33514923 109.93693497 110.85731018 110.55331329 111.39529419 111.18836975 C113.72564523 113.8192161 116.24891788 116.09964641 118.875 118.4375 C120.32519531 119.73494141 120.32519531 119.73494141 121.8046875 121.05859375 C122.52914062 121.69925781 123.25359375 122.33992188 124 123 C127.21524305 121.59155282 129.32183868 119.89655214 131.75 117.375 C132.36359375 116.74335938 132.9771875 116.11171875 133.609375 115.4609375 C134.06828125 114.97882813 134.5271875 114.49671875 135 114 C133.02 111.69 131.04 109.38 129 107 C127.515 107.495 127.515 107.495 126 108 C126.7734375 108.86625 126.7734375 108.86625 127.5625 109.75 C129 112 129 112 128.8125 114.125 C128 116 128 116 126 118 C122.63677421 117.68001698 121.08974037 116.38994811 118.875 113.9375 C117.43065299 112.30167795 117.43065299 112.30167795 116 111 C115.34 111 114.68 111 114 111 C116.21886329 106.90874045 118.86015272 103.92842268 122.1875 100.6875 C123.08855469 99.80449219 123.98960937 98.92148437 124.91796875 98.01171875 C125.60503906 97.34785156 126.29210937 96.68398438 127 96 C130.05160609 97.37263363 132.24826932 98.95956573 134.671875 101.2578125 C135.33574219 101.88300781 135.99960937 102.50820313 136.68359375 103.15234375 C137.36550781 103.80332031 138.04742188 104.45429688 138.75 105.125 C139.44738281 105.78371094 140.14476562 106.44242187 140.86328125 107.12109375 C142.57950489 108.74327774 144.29153435 110.36965379 146 112 C145.45634458 115.98416091 143.56534815 117.78363228 140.74609375 120.546875 C139.89208984 121.39121094 139.03808594 122.23554688 138.15820312 123.10546875 C136.81145508 124.41451172 136.81145508 124.41451172 135.4375 125.75 C134.53580078 126.63816406 133.63410156 127.52632813 132.70507812 128.44140625 C130.47662902 130.63448315 128.24148407 132.82026044 126 135 C122.55289943 133.52481525 120.39867093 131.59656622 117.8125 128.90234375 C117.03132812 128.10119141 116.25015625 127.30003906 115.4453125 126.47460938 C113.81315128 124.78117693 112.18294546 123.08585769 110.5546875 121.38867188 C109.77351562 120.58880859 108.99234375 119.78894531 108.1875 118.96484375 C107.47980469 118.2287085 106.77210938 117.49257324 106.04296875 116.73413086 C103.94185144 114.95064182 102.71934775 114.28556396 100 114 C98.23945106 114.92059257 98.23945106 114.92059257 96.625 116.5625 C95.94695312 117.19414062 95.26890625 117.82578125 94.5703125 118.4765625 C89.00348174 123.94187051 83.48154862 129.44916214 78 135 C72.56090145 132.63677895 68.8360377 128.24452695 64.6875 124.125 C63.83865234 123.30902344 62.98980469 122.49304688 62.11523438 121.65234375 C60.91930664 120.46705078 60.91930664 120.46705078 59.69921875 119.2578125 C58.96533936 118.5373877 58.23145996 117.81696289 57.4753418 117.07470703 C56 115 56 115 56.17089844 112.85229492 C57.25111797 110.4389776 58.65685416 109.01856088 60.5625 107.1875 C61.63177734 106.15689453 61.63177734 106.15689453 62.72265625 105.10546875 C66.08575252 101.99619107 69.51212594 98.96840346 73 96 C76.8288537 97.57973684 79.28773759 100.02060457 82.1875 102.9375 C83.50814453 104.25041016 83.50814453 104.25041016 84.85546875 105.58984375 C87 108 87 108 88 111 C87.443125 111.226875 86.88625 111.45375 86.3125 111.6875 C83.76981118 112.97748266 83.76981118 112.97748266 81.5 115.6875 C79 118 79 118 76.8125 117.9375 C75 117 75 117 73 115 C73.38878188 111.98694043 74.26456874 110.60314689 76 108 C72.1691947 107.55839752 72.1691947 107.55839752 70.515625 109.3125 C70.09796875 109.869375 69.6803125 110.42625 69.25 111 C68.5075 111.99 67.765 112.98 67 114 C69.97 116.97 72.94 119.94 76 123 C79.66768161 121.16615919 81.93635881 119.46906166 84.9375 116.75 C85.77152344 116.00234375 86.60554688 115.2546875 87.46484375 114.484375 C90.1663686 111.8369639 92.57852655 108.90576813 95 106 C79.16 90.16 63.32 74.32 47 58 C42.99123834 61.43608142 38.99958069 64.86191262 35.0625 68.375 C34.29035156 69.06335938 33.51820313 69.75171875 32.72265625 70.4609375 C32.15417969 70.96882813 31.58570313 71.47671875 31 72 C25.36865999 68.08721607 20.59823223 63.73611278 15.8828125 58.7578125 C14.18565313 56.77252456 14.18565313 56.77252456 12 57 C14.21886329 52.90874045 16.86015272 49.92842268 20.1875 46.6875 C21.08855469 45.80449219 21.98960937 44.92148437 22.91796875 44.01171875 C23.60503906 43.34785156 24.29210937 42.68398438 25 42 C26.29315061 42.95632999 27.58446853 43.91513851 28.875 44.875 C29.59429687 45.40867187 30.31359375 45.94234375 31.0546875 46.4921875 C33 48 33 48 35 50 C34.63318342 52.93453261 34.13562754 53.86437246 32 56 C28.98694043 55.61121812 27.60314689 54.73543126 25 53 C25.34879632 56.25543229 26.02133261 57.01873107 28.5625 59.25 C29.7690625 60.11625 29.7690625 60.11625 31 61 C33.97 58.03 36.94 55.06 40 52 C39.30165039 51.30237549 38.60330078 50.60475098 37.88378906 49.88598633 C35.41618772 47.41843915 32.95493726 44.94464652 30.49505615 42.46940613 C28.18830852 40.14925217 25.87887261 37.8317816 23.56933594 35.5144043 C22.34840326 34.28839259 21.12836209 33.06149248 19.90917969 31.83374023 C18.14489585 30.05740786 16.37747286 28.28425375 14.609375 26.51171875 C14.0615033 25.95868576 13.51363159 25.40565277 12.94915771 24.83586121 C11.65161433 23.5381235 10.32841394 22.26611942 9 21 C8.67 21 8.34 21 8 21 Z " fill="#000000" transform="translate(411,339)"/>
<path d="M0 0 C1.32 0.66 2.64 1.32 4 2 C4 2.66 4 3.32 4 4 C4.66 4 5.32 4 6 4 C7.68732277 5.98260426 9.35366057 7.9832342 11 10 C11.99 10.495 11.99 10.495 13 11 C13 11.66 13 12.32 13 13 C13.84394569 13.35547913 13.84394569 13.35547913 14.7049408 13.71813965 C17.52789007 15.29484266 19.44376428 17.21179741 21.72094727 19.50976562 C22.65193741 20.44413452 23.58292755 21.37850342 24.54212952 22.34118652 C25.55025255 23.36284397 26.55834403 24.38453255 27.56640625 25.40625 C28.6067428 26.4528603 29.64759841 27.49895489 30.68894958 28.54455566 C33.42597896 31.29487152 36.15738295 34.05070091 38.88720703 36.8081665 C43.25873642 41.22285694 47.63701509 45.63082825 52.01856804 50.03556824 C53.5470644 51.57427889 55.07209695 53.11636196 56.59681702 54.65881348 C57.524655 55.59318237 58.45249298 56.52755127 59.40844727 57.49023438 C60.63278221 58.72694885 60.63278221 58.72694885 61.8818512 59.98864746 C64.03069542 62.14374658 64.03069542 62.14374658 67 64 C67 64.66 67 65.32 67 66 C67.59540085 66.27172028 68.1908017 66.54344055 68.804245 66.82339478 C70.95858743 67.97780889 72.39445748 69.1243606 74.13208008 70.82568359 C74.71560745 71.39322357 75.29913483 71.96076355 75.90034485 72.54550171 C76.51717636 73.15697052 77.13400787 73.76843933 77.76953125 74.3984375 C78.40992844 75.02980621 79.05032562 75.66117493 79.71012878 76.31167603 C81.05840931 77.64547507 82.40391793 78.98208118 83.74682617 80.32128906 C85.81043182 82.37294379 87.89195356 84.40520923 89.97460938 86.4375 C91.28239464 87.7358272 92.58907447 89.03526905 93.89453125 90.3359375 C94.52148392 90.94335785 95.14843658 91.5507782 95.79438782 92.17660522 C97.51489258 93.91552734 97.51489258 93.91552734 100 97 C99.57475761 101.62491467 96.21200112 104.18299773 93.05859375 107.26953125 C92.45749283 107.868759 91.85639191 108.46798676 91.23707581 109.08537292 C89.9619166 110.35381084 88.68316525 111.61864626 87.40112305 112.88012695 C85.46222328 114.78817018 83.53391305 116.70639037 81.60742188 118.62695312 C80.36259312 119.86259799 79.11716829 121.09764269 77.87109375 122.33203125 C77.30305527 122.89581985 76.73501678 123.45960846 76.14976501 124.04048157 C73.2333305 126.90658861 70.26308365 129.66265091 67.16235352 132.32885742 C62.39161882 136.46418507 57.97146307 140.92166711 53.53125 145.40625 C52.65150513 146.28978149 51.77176025 147.17331299 50.86535645 148.08361816 C48.07445494 150.88665133 45.28670768 153.69279916 42.5 156.5 C38.82601262 160.2010055 35.14834398 163.89831822 31.46875 167.59375 C30.63831177 168.43248657 29.80787354 169.27122314 28.95227051 170.13537598 C24.68449534 174.42089657 20.35326759 178.55205007 15.74975586 182.47633362 C12.86177283 184.99115454 10.18417373 187.70881829 7.5 190.4375 C6.96375 190.97826172 6.4275 191.51902344 5.875 192.07617188 C4.58095964 193.38176617 3.29011826 194.69052996 2 196 C-1.34584964 194.54957091 -3.50054036 192.72261175 -6.0390625 190.12109375 C-6.78414063 189.36505859 -7.52921875 188.60902344 -8.296875 187.83007812 C-9.06515625 187.04052734 -9.8334375 186.25097656 -10.625 185.4375 C-12.15663169 183.87152109 -13.69038195 182.30761061 -15.2265625 180.74609375 C-15.90283691 180.05185303 -16.57911133 179.3576123 -17.27587891 178.64233398 C-18.91488551 176.92043505 -18.91488551 176.92043505 -21 176 C-21 175.34 -21 174.68 -21 174 C-21.56237366 173.76327072 -22.12474731 173.52654144 -22.7041626 173.28263855 C-25.5321555 171.70269534 -27.4519237 169.78001416 -29.73339844 167.4777832 C-30.18930359 167.02056381 -30.64520874 166.56334442 -31.1149292 166.0922699 C-32.61773267 164.58298883 -34.11342665 163.06685442 -35.609375 161.55078125 C-36.66015161 160.49372679 -37.71145 159.43719079 -38.76324463 158.38114929 C-41.53287687 155.59822101 -44.29689748 152.80979129 -47.05932617 150.01971436 C-51.46465825 145.57128318 -55.87657271 141.12940906 -60.29199982 136.69099998 C-61.82309235 135.14980334 -63.35065291 133.60517189 -64.87786865 132.06013489 C-69.55924378 127.33865611 -74.2937475 122.75116695 -79.3470459 118.42686462 C-81.39694079 116.65735239 -83.31446862 114.78376699 -85.2109375 112.8515625 C-85.89800781 112.15675781 -86.58507812 111.46195312 -87.29296875 110.74609375 C-87.98003906 110.04613281 -88.66710937 109.34617187 -89.375 108.625 C-90.77632747 107.19824009 -92.1798635 105.77364493 -93.5859375 104.3515625 C-94.1948584 103.73104004 -94.8037793 103.11051758 -95.43115234 102.47119141 C-96.95123461 100.90538038 -96.95123461 100.90538038 -99 100 C-98.43006922 96.25271826 -96.91151825 94.54770247 -94.24609375 91.91796875 C-93.0869043 90.76651367 -93.0869043 90.76651367 -91.90429688 89.59179688 C-91.09025391 88.79837891 -90.27621094 88.00496094 -89.4375 87.1875 C-88.25704102 86.01477539 -88.25704102 86.01477539 -87.05273438 84.81835938 C-83.53271513 81.34477073 -79.97694883 77.96800141 -76.23071289 74.73950195 C-71.83189562 70.91017513 -67.72375353 66.83342354 -63.625 62.6875 C-62.85623535 61.91494873 -62.0874707 61.14239746 -61.29541016 60.34643555 C-58.86114235 57.90005818 -56.43015894 55.4504586 -54 53 C-50.79463822 49.76786312 -47.58585927 46.53917465 -44.375 43.3125 C-43.65393066 42.58313232 -42.93286133 41.85376465 -42.18994141 41.10229492 C-38.23020354 37.12371867 -34.16700873 33.35291444 -29.91577148 29.68869019 C-26.84685194 26.98353753 -23.97246241 24.09613142 -21.09375 21.19140625 C-20.17849548 20.27402931 -20.17849548 20.27402931 -19.24475098 19.33811951 C-17.32743835 17.41528198 -15.41366298 15.48896906 -13.5 13.5625 C-12.18773415 12.24520941 -10.87523605 10.92815014 -9.5625 9.61132812 C-6.37231494 6.4102139 -3.18529349 3.20598135 0 0 Z M-1.8828125 14.72265625 C-2.62273437 15.49480469 -3.36265625 16.26695312 -4.125 17.0625 C-6.86686593 19.91657752 -9.66765034 22.60145533 -12.67138672 25.17358398 C-16.94632989 28.89949671 -20.95357618 32.84226636 -24.9375 36.875 C-25.66187256 37.60315918 -26.38624512 38.33131836 -27.13256836 39.08154297 C-29.42418303 41.38525646 -31.71250652 43.69219474 -34 46 C-37.01785081 49.04464779 -40.03913416 52.08582967 -43.0625 55.125 C-43.73982178 55.81062012 -44.41714355 56.49624023 -45.11499023 57.20263672 C-48.97150591 61.07862255 -52.94290864 64.73821371 -57.08227539 68.30935669 C-60.07464013 70.94739001 -62.8809233 73.75689622 -65.6875 76.58984375 C-66.56946045 77.47392662 -66.56946045 77.47392662 -67.46923828 78.37586975 C-69.31522361 80.22737618 -71.15766892 82.08235817 -73 83.9375 C-74.2640885 85.20661373 -75.52840956 86.47549589 -76.79296875 87.74414062 C-79.86466724 90.8267632 -82.93320008 93.91250428 -86 97 C-84.65772899 99.98435256 -83.17341717 102.07879551 -80.8671875 104.39160156 C-79.91610107 105.35214447 -79.91610107 105.35214447 -78.94580078 106.33209229 C-78.26243652 107.01140808 -77.57907227 107.69072388 -76.875 108.390625 C-76.1722998 109.09523865 -75.46959961 109.79985229 -74.74560547 110.52581787 C-73.26189896 112.01088353 -71.77567108 113.49343381 -70.28710938 114.97363281 C-68.00156409 117.24844325 -65.72690983 119.5337536 -63.453125 121.8203125 C-62.01105781 123.26105868 -60.56837065 124.70118465 -59.125 126.140625 C-58.44163574 126.82803772 -57.75827148 127.51545044 -57.05419922 128.22369385 C-56.4201416 128.85144714 -55.78608398 129.47920044 -55.1328125 130.12597656 C-54.57480957 130.68238831 -54.01680664 131.23880005 -53.44189453 131.81207275 C-52.0541017 133.21195394 -52.0541017 133.21195394 -50 133 C-49.67 133.99 -49.34 134.98 -49 136 C-47.46841904 137.55637267 -47.46841904 137.55637267 -45.546875 139.08422852 C-40.51844699 143.35399245 -35.89833798 147.97596319 -31.25 152.65234375 C-30.35128174 153.55247696 -29.45256348 154.45261017 -28.52661133 155.38002014 C-26.16413425 157.74711263 -23.80384888 160.11634639 -21.44464111 162.48669434 C-19.02614819 164.91550742 -16.60474054 167.34141103 -14.18359375 169.76757812 C-9.45307046 174.50907369 -4.72542027 179.25341898 0 184 C3.30047378 182.55972632 5.46159068 180.77749121 7.98657227 178.22460938 C8.75739639 177.45040649 9.52822052 176.67620361 10.32240295 175.87854004 C11.55693459 174.62381897 11.55693459 174.62381897 12.81640625 173.34375 C13.66927719 172.48567749 14.52214813 171.62760498 15.40086365 170.74353027 C18.1261917 168.0003833 20.84474837 165.25065187 23.5625 162.5 C26.28467378 159.75021796 29.00828321 157.00189804 31.73484802 154.25646973 C33.43151198 152.54754097 35.12549574 150.83594627 36.81654358 149.12145996 C37.58421555 148.34725708 38.35188751 147.5730542 39.14282227 146.77539062 C39.81692642 146.09303345 40.49103058 145.41067627 41.18556213 144.7076416 C43 143 43 143 46 141 C46 140.34 46 139.68 46 139 C46.57868835 138.74662872 47.15737671 138.49325745 47.75360107 138.23220825 C50.26245484 136.85603669 51.92691517 135.31357207 53.94238281 133.28466797 C54.70286926 132.52403046 55.46335571 131.76339294 56.24688721 130.97970581 C57.46272491 129.74838425 57.46272491 129.74838425 58.703125 128.4921875 C59.54091492 127.65156769 60.37870483 126.81094788 61.24188232 125.94485474 C63.91598431 123.25955999 66.58304724 120.56739345 69.25 117.875 C71.06204062 116.05292845 72.87453518 114.23130823 74.6875 112.41015625 C79.13028036 107.94532748 83.56730165 103.47483717 88 99 C87.34 97.68 86.68 96.36 86 95 C85.34 95 84.68 95 84 95 C84 94.34 84 93.68 84 93 C82.51028333 91.49084194 82.51028333 91.49084194 80.55078125 89.921875 C75.8528149 85.92422021 71.52378599 81.63333513 67.1875 77.25 C66.37434326 76.43305664 65.56118652 75.61611328 64.72338867 74.77441406 C61.2782266 71.31304958 57.8390971 67.84571409 54.39941406 64.37890625 C51.87253492 61.83384812 49.34258685 59.29186869 46.8125 56.75 C46.04768311 55.97688477 45.28286621 55.20376953 44.49487305 54.40722656 C40.42665854 50.3207129 36.26491382 46.43525734 31.89593506 42.67330933 C28.8466969 39.98212082 26.00970807 37.0946567 23.1640625 34.19140625 C21.92330321 32.93802617 20.68241424 31.68477446 19.44140625 30.43164062 C17.51715767 28.48239216 15.59457267 26.53155095 13.67431641 24.57836914 C11.80020162 22.67424016 9.92006678 20.77622603 8.0390625 18.87890625 C7.17349228 17.99314659 7.17349228 17.99314659 6.29043579 17.0894928 C4.89778729 15.68804268 3.45334043 14.33840722 2 13 C-0.17939784 12.7749896 -0.17939784 12.7749896 -1.8828125 14.72265625 Z " fill="#000000" transform="translate(511,232)"/>
<path d="M0 0 C1.16781006 0.00523682 2.33562012 0.01047363 3.53881836 0.01586914 C4.79887695 0.0190918 6.05893555 0.02231445 7.35717773 0.02563477 C8.6976732 0.03399136 10.03816799 0.04245632 11.37866211 0.05102539 C12.72306153 0.05603879 14.06746271 0.06060197 15.41186523 0.06469727 C18.71334151 0.07653051 22.01473014 0.09301568 25.31616211 0.11352539 C31.40530691 15.9827212 37.06798604 31.94663055 42.31616211 48.11352539 C44.3807413 45.0166566 45.47280251 42.24349631 46.74194336 38.75024414 C46.97141159 38.12181107 47.20087982 37.49337799 47.43730164 36.84590149 C48.17148818 34.83227881 48.90010539 32.81669092 49.62866211 30.80102539 C50.10682257 29.48774498 50.58533502 28.17459267 51.06420898 26.86157227 C52.9810895 21.5970433 54.89116185 16.33057332 56.7512207 11.0456543 C57.0940937 10.07436333 57.0940937 10.07436333 57.44389343 9.08345032 C58.07330556 7.29722613 58.69911552 5.50973384 59.32470703 3.72216797 C60.31616211 1.11352539 60.31616211 1.11352539 61.31616211 0.11352539 C63.14601833 0.01390302 64.97969089 -0.01727913 66.81225586 -0.01928711 C68.48578125 -0.0212207 68.48578125 -0.0212207 70.19311523 -0.02319336 C71.3680957 -0.01932617 72.54307617 -0.01545898 73.75366211 -0.01147461 C74.92477539 -0.0153418 76.09588867 -0.01920898 77.30249023 -0.02319336 C78.97794922 -0.02125977 78.97794922 -0.02125977 80.68725586 -0.01928711 C81.71778076 -0.01815918 82.74830566 -0.01703125 83.81005859 -0.01586914 C86.31616211 0.11352539 86.31616211 0.11352539 88.31616211 1.11352539 C88.31616211 3.09352539 88.31616211 5.07352539 88.31616211 7.11352539 C87.34678711 7.38165039 86.37741211 7.64977539 85.37866211 7.92602539 C84.42733398 8.21026367 84.42733398 8.21026367 83.45678711 8.50024414 C81.97951991 8.9234758 80.48784602 9.29836774 78.98803711 9.63305664 C78.20944336 9.83286133 77.43084961 10.03266602 76.62866211 10.23852539 C75.54004883 10.48989258 75.54004883 10.48989258 74.42944336 10.74633789 C67.22088251 15.409917 65.19655816 29.05062846 62.62866211 36.92602539 C62.10089439 38.52893609 61.57248639 40.13163611 61.04345703 41.73413086 C59.97654566 44.96822309 58.9125935 48.20326291 57.85131836 51.43920898 C55.62903287 58.21184708 53.37991565 64.97546783 51.12866211 71.73852539 C50.75459229 72.8687915 50.38052246 73.99905762 49.99511719 75.16357422 C49.65375732 76.19119873 49.31239746 77.21882324 48.96069336 78.27758789 C48.66525635 79.16913574 48.36981934 80.06068359 48.06542969 80.97924805 C47.31616211 83.11352539 47.31616211 83.11352539 46.31616211 85.11352539 C44.00616211 85.11352539 41.69616211 85.11352539 39.31616211 85.11352539 C37.83268019 80.81254083 36.35209422 76.51057007 34.87310791 72.20803833 C34.06360949 69.85610898 33.25120462 67.50519629 32.4387207 65.15429688 C29.54892631 56.76982525 26.73762756 48.36854238 24.05834961 39.91430664 C23.2726337 37.46178665 22.48552533 35.00971734 21.69812012 32.55773926 C21.195546 30.97642597 20.70059774 29.39266773 20.21350098 27.80651855 C19.52953655 25.58078579 18.82007108 23.36465463 18.10522461 21.14868164 C17.81504959 20.16500359 17.81504959 20.16500359 17.51901245 19.16145325 C15.92758571 14.35364543 13.7169189 12.47608554 9.31616211 10.11352539 C6.17387835 9.05647302 6.17387835 9.05647302 3.00366211 8.42602539 C-2.60655082 7.19081246 -2.60655082 7.19081246 -3.68383789 6.11352539 C-3.80883789 3.61352539 -3.80883789 3.61352539 -3.68383789 1.11352539 C-2.68383789 0.11352539 -2.68383789 0.11352539 0 0 Z " fill="#000000" transform="translate(469.683837890625,288.886474609375)"/>
<path d="M0 0 C5.28 0 10.56 0 16 0 C18.64 7.26 21.28 14.52 24 22 C26.59072904 15.13502578 26.59072904 15.13502578 29.17553711 8.26782227 C29.4978833 7.41760498 29.82022949 6.5673877 30.15234375 5.69140625 C30.48226318 4.81685791 30.81218262 3.94230957 31.15209961 3.04125977 C32 1 32 1 33 0 C35.53049402 -0.07313567 38.03304837 -0.09247527 40.5625 -0.0625 C41.62887695 -0.05573242 41.62887695 -0.05573242 42.71679688 -0.04882812 C44.47790013 -0.03700864 46.23896036 -0.01907263 48 0 C48 2.31 48 4.62 48 7 C46.68 7 45.36 7 44 7 C44 15.91 44 24.82 44 34 C45.32 34 46.64 34 48 34 C48 36.31 48 38.62 48 41 C42.06 41 36.12 41 30 41 C30 38.69 30 36.38 30 34 C31.32 34 32.64 34 34 34 C33.67 30.7 33.34 27.4 33 24 C31.02 29.61 29.04 35.22 27 41 C24.69 41 22.38 41 20 41 C19.20558928 39.12616097 18.41460026 37.25087114 17.625 35.375 C17.18414062 34.33085938 16.74328125 33.28671875 16.2890625 32.2109375 C15.06863678 29.17096798 14.0018609 26.11794095 13 23 C13 26.3 13 29.6 13 33 C13.99 33.33 14.98 33.66 16 34 C16 36.31 16 38.62 16 41 C10.72 41 5.44 41 0 41 C0 38.69 0 36.38 0 34 C1.32 34 2.64 34 4 34 C4 25.09 4 16.18 4 7 C2.68 7 1.36 7 0 7 C0 4.69 0 2.38 0 0 Z " fill="#000000" transform="translate(400,626)"/>
<path d="M0 0 C2.05078125 0.03255208 4.1015625 0.06510417 6.15234375 0.09765625 C7.59548371 3.88719969 9.03079872 7.67966273 10.46484375 11.47265625 C11.07102539 13.06400391 11.07102539 13.06400391 11.68945312 14.6875 C14.10642689 21.09346299 16.29473179 27.50696345 18.15234375 34.09765625 C19.47234375 34.09765625 20.79234375 34.09765625 22.15234375 34.09765625 C22.15234375 36.40765625 22.15234375 38.71765625 22.15234375 41.09765625 C15.88234375 41.09765625 9.61234375 41.09765625 3.15234375 41.09765625 C3.15234375 38.78765625 3.15234375 36.47765625 3.15234375 34.09765625 C4.47234375 34.09765625 5.79234375 34.09765625 7.15234375 34.09765625 C6.65734375 31.62265625 6.65734375 31.62265625 6.15234375 29.09765625 C1.20234375 29.59265625 1.20234375 29.59265625 -3.84765625 30.09765625 C-4.17765625 31.08765625 -4.50765625 32.07765625 -4.84765625 33.09765625 C-3.52765625 33.42765625 -2.20765625 33.75765625 -0.84765625 34.09765625 C-0.84765625 36.40765625 -0.84765625 38.71765625 -0.84765625 41.09765625 C-6.78765625 41.09765625 -12.72765625 41.09765625 -18.84765625 41.09765625 C-18.84765625 38.78765625 -18.84765625 36.47765625 -18.84765625 34.09765625 C-18.24912842 34.07832031 -17.65060059 34.05898438 -17.03393555 34.0390625 C-14.50615879 33.22712017 -14.50615879 33.22712017 -13.30786133 30.0625 C-12.81145937 28.72594952 -12.33231711 27.38290865 -11.8671875 26.03515625 C-11.60886642 25.32866943 -11.35054535 24.62218262 -11.08439636 23.89428711 C-10.26119306 21.63388314 -9.46015658 19.36636405 -8.66015625 17.09765625 C-7.84497578 14.83078782 -7.02539702 12.56556855 -6.20378113 10.30102539 C-5.69375083 8.890462 -5.18835169 7.47821416 -4.6879425 6.06420898 C-2.57415001 0.13605444 -2.57415001 0.13605444 0 0 Z M0.15234375 17.09765625 C-0.17765625 18.41765625 -0.50765625 19.73765625 -0.84765625 21.09765625 C0.47234375 20.76765625 1.79234375 20.43765625 3.15234375 20.09765625 C2.16234375 19.10765625 1.17234375 18.11765625 0.15234375 17.09765625 Z " fill="#000000" transform="translate(479.84765625,626.90234375)"/>
<path d="M0 0 C6.27 0 12.54 0 19 0 C19 2.31 19 4.62 19 7 C17.68 7 16.36 7 15 7 C16.65 11.62 18.3 16.24 20 21 C21.93938819 18.09091772 22.96774957 15.59137621 24.125 12.3125 C24.47820313 11.31863281 24.83140625 10.32476563 25.1953125 9.30078125 C25.46085938 8.54152344 25.72640625 7.78226563 26 7 C24.68 7 23.36 7 22 7 C22 4.69 22 2.38 22 0 C27.61 0 33.22 0 39 0 C39 2.31 39 4.62 39 7 C37.68 7 36.36 7 35 7 C34.83201904 7.65266846 34.66403809 8.30533691 34.4909668 8.9777832 C32.58968252 16.17491118 30.30032899 23.17389169 27.8125 30.1875 C27.26045898 31.75854492 27.26045898 31.75854492 26.69726562 33.36132812 C25.80158738 35.90877663 24.90246184 38.45494852 24 41 C21.36 41 18.72 41 16 41 C12.72317505 33.57051671 9.87728676 26.03344922 7.1875 18.375 C6.87353271 17.48586914 6.55956543 16.59673828 6.23608398 15.68066406 C5.94548096 14.8450293 5.65487793 14.00939453 5.35546875 13.1484375 C5.09403076 12.39739746 4.83259277 11.64635742 4.56323242 10.87255859 C4 9 4 9 4 7 C2.68 7 1.36 7 0 7 C0 4.69 0 2.38 0 0 Z " fill="#000000" transform="translate(509,627)"/>
<path d="M0 0 C2.6875 1.625 2.6875 1.625 4.6875 3.625 C4.9375 7.125 4.9375 7.125 4.6875 10.625 C2.6875 12.625 2.6875 12.625 -0.9375 12.75 C-2.05125 12.70875 -3.165 12.6675 -4.3125 12.625 C-4.6425 10.975 -4.9725 9.325 -5.3125 7.625 C-6.6325 7.625 -7.9525 7.625 -9.3125 7.625 C-9.6425 8.615 -9.9725 9.605 -10.3125 10.625 C-8.06583053 13.10136091 -5.83921599 14.53790324 -2.875 16.0625 C3.74534062 19.71176093 3.74534062 19.71176093 5.6875 22.625 C6.91592223 27.10917068 7.03816221 30.57301338 5.5625 35 C2.92912421 38.6867261 0.83856974 40.15388286 -3.61328125 41.12890625 C-9.46455704 41.97241338 -13.20518866 41.64769447 -18.3125 38.625 C-20.3125 36.875 -20.3125 36.875 -21.3125 34.625 C-21.1875 31 -21.1875 31 -20.3125 27.625 C-17.08458445 25.4730563 -16.02849191 25.42413557 -12.3125 25.625 C-11.6525 27.935 -10.9925 30.245 -10.3125 32.625 C-8.6625 32.625 -7.0125 32.625 -5.3125 32.625 C-4.9825 30.975 -4.6525 29.325 -4.3125 27.625 C-5.04855469 27.26148438 -5.78460937 26.89796875 -6.54296875 26.5234375 C-17.33538444 20.96327618 -17.33538444 20.96327618 -20.3125 15.625 C-20.97970699 12.14318875 -21.03767814 9.10005362 -20.3125 5.625 C-15.26223351 -1.30107976 -7.9536068 -3.30149716 0 0 Z " fill="#000000" transform="translate(617.3125,627.375)"/>
<path d="M0 0 C4.77874756 0.86602783 4.77874756 0.86602783 6.77001953 2.07177734 C8.71213611 5.11640551 8.57655735 8.34217206 8.6796875 11.8515625 C8.71343475 12.64261383 8.74718201 13.43366516 8.7819519 14.24868774 C9.01598996 20.35994594 9.05202862 26.47088815 9.0703125 32.5859375 C9.08567429 35.27572015 9.1015906 37.96549798 9.11816406 40.65527344 C9.12278437 42.49349418 9.11630816 44.33177117 9.09960938 46.16992188 C9.07874917 48.87226669 9.10170504 51.57125707 9.1328125 54.2734375 C9.11542023 55.09315033 9.09802795 55.91286316 9.08010864 56.75741577 C9.12899174 59.04898875 9.22244354 60.84167645 10 63 C12.24137733 64.979817 14.19465408 65.81576796 17 67 C16.67 68.65 16.34 70.3 16 72 C8.41 72 0.82 72 -7 72 C-7.33 70.68 -7.66 69.36 -8 68 C-7.030625 67.38125 -6.06125 66.7625 -5.0625 66.125 C-1.97164638 64.34321154 -1.97164638 64.34321154 -1 62 C-0.87983328 60.02965512 -0.82264667 58.05535064 -0.79467773 56.08154297 C-0.77473251 54.84040741 -0.75478729 53.59927185 -0.73423767 52.32052612 C-0.7172534 50.9610812 -0.70037459 49.60163495 -0.68359375 48.2421875 C-0.66302419 46.85498433 -0.64202772 45.46778743 -0.62062073 44.08059692 C-0.56540019 40.42772495 -0.51599089 36.77479641 -0.46777344 33.12182617 C-0.41755825 29.39496826 -0.36187229 25.66819259 -0.30664062 21.94140625 C-0.19905929 14.62767379 -0.09761432 7.31387299 0 0 Z " fill="#000000" transform="translate(476,300)"/>
<path d="M0 0 C-0.01554428 0.76563766 -0.03108856 1.53127533 -0.04710388 2.32011414 C-0.18750393 9.54407001 -0.29400538 16.76736241 -0.3626852 23.99232769 C-0.39918263 27.70665988 -0.44866153 31.41986276 -0.52807617 35.13354492 C-0.60427216 38.71925208 -0.64601657 42.303875 -0.6641407 45.89032936 C-0.6770515 47.25679407 -0.70226606 48.62320093 -0.7401104 49.9892025 C-1.29030292 57.40170251 -1.29030292 57.40170251 1.60494995 63.8031311 C3.35636543 64.94425288 5.17575313 65.97934412 7 67 C7 68.65 7 70.3 7 72 C-0.59 72 -8.18 72 -16 72 C-16.495 69.525 -16.495 69.525 -17 67 C-16.030625 66.54625 -15.06125 66.0925 -14.0625 65.625 C-10.92920418 64.34213779 -10.92920418 64.34213779 -10 62 C-9.89583468 60.23951852 -9.85403037 58.47519126 -9.84228516 56.71166992 C-9.83202301 55.60679733 -9.82176086 54.50192474 -9.81118774 53.36357117 C-9.80388641 52.16464737 -9.79658508 50.96572357 -9.7890625 49.73046875 C-9.76099366 47.20767581 -9.73232919 44.68488943 -9.703125 42.16210938 C-9.66184459 38.17240676 -9.62496994 34.18294645 -9.59863281 30.19311523 C-9.57105257 26.35113983 -9.52517744 22.50972781 -9.4765625 18.66796875 C-9.47330963 17.47511765 -9.47005676 16.28226654 -9.46670532 15.05326843 C-9.45013885 13.93893936 -9.43357239 12.82461029 -9.41650391 11.67651367 C-9.40841705 10.69881516 -9.4003302 9.72111664 -9.39199829 8.71379089 C-8.92903207 5.50869142 -7.8793148 3.61595195 -6 1 C-2.57142857 -1.28571429 -2.57142857 -1.28571429 0 0 Z " fill="#000000" transform="translate(549,300)"/>
<path d="M0 0 C6.6 0 13.2 0 20 0 C20 2.31 20 4.62 20 7 C18.35 7 16.7 7 15 7 C15 15.91 15 24.82 15 34 C16.65 34 18.3 34 20 34 C20 36.31 20 38.62 20 41 C13.4 41 6.8 41 0 41 C0 38.69 0 36.38 0 34 C1.65 34 3.3 34 5 34 C5 25.09 5 16.18 5 7 C3.35 7 1.7 7 0 7 C0 4.69 0 2.38 0 0 Z " fill="#000000" transform="translate(561,627)"/>
<path d="M0 0 C3.0656253 2.00204101 4.47814172 3.40160389 5.62109375 6.90234375 C6.29878401 10.54230898 6.07993178 12.76464532 4.875 16.3125 C2.77695441 19.31969868 1.37441999 20.5874521 -2 22 C-5.94552489 22.58763137 -7.68463193 22.16374881 -11.25 20.3125 C-14.2189119 17.815915 -15.22995813 16.76464912 -16 13 C-16.14333632 8.59240812 -15.47237768 5.7314235 -13.0625 2 C-8.7182358 -0.8370705 -5.04772843 -1.0112034 0 0 Z M-7 8 C-7.33 9.32 -7.66 10.64 -8 12 C-5.525 12.495 -5.525 12.495 -3 13 C-2.67 11.68 -2.34 10.36 -2 9 C-3.65 8.67 -5.3 8.34 -7 8 Z " fill="#000000" transform="translate(517,470)"/>
<path d="M0 0 C3.4431146 2.09580889 5.7468218 4.1265401 7 8 C7.52055293 11.99090581 7.16996586 13.69523363 5.1875 17.25 C3 20 3 20 0 22 C-6.90258449 22.66799205 -6.90258449 22.66799205 -10.875 20.25 C-13.79007536 17.16344962 -14.82513599 15.34062405 -15.375 11.125 C-14.89861498 7.15512486 -13.46959574 5.10463464 -11 2 C-7.3078813 -0.46141247 -4.28645195 -0.68650207 0 0 Z M-6 8 C-6.33 9.65 -6.66 11.3 -7 13 C-3.95086772 14.01111093 -3.95086772 14.01111093 -1 13 C-1.33 11.35 -1.66 9.7 -2 8 C-3.32 8 -4.64 8 -6 8 Z " fill="#000000" transform="translate(516,169)"/>
<path d="M0 0 C2.7225 -0.0825 5.445 -0.165 8.25 -0.25 C9.10110352 -0.28641602 9.95220703 -0.32283203 10.82910156 -0.36035156 C14.27019991 -0.41088403 16.4644912 -0.29602661 19.515625 1.390625 C21.84047073 5.47745908 21.57918236 9.38102902 21.5 14 C21.51546875 14.90234375 21.5309375 15.8046875 21.546875 16.734375 C21.52412332 20.57940932 21.4364157 23.23282713 19.515625 26.609375 C15.77098424 28.6793938 12.44547177 28.42951091 8.25 28.25 C5.5275 28.1675 2.805 28.085 0 28 C0 18.76 0 9.52 0 0 Z M4 4 C4 10.6 4 17.2 4 24 C7.3 24 10.6 24 14 24 C16.55948999 21.44051001 16.26068731 19.72792805 16.2734375 16.234375 C16.26570312 15.49703125 16.25796875 14.7596875 16.25 14 C16.25773438 13.26265625 16.26546875 12.5253125 16.2734375 11.765625 C16.41008865 7.41578097 16.41008865 7.41578097 14 4 C10.7 4 7.4 4 4 4 Z " fill="#000000" transform="translate(519,682)"/>
<path d="M0 0 C1.8253125 -0.01546875 1.8253125 -0.01546875 3.6875 -0.03125 C7 0.5 7 0.5 9.40625 1.90625 C11.89512053 5.95676479 11.57987196 9.84080216 11.5 14.5 C11.51546875 15.40234375 11.5309375 16.3046875 11.546875 17.234375 C11.52375189 21.14218039 11.47761928 23.72269804 9.40625 27.09375 C6.14779239 28.99804341 3.75912778 29.03185702 0 29 C-1.8253125 29.01546875 -1.8253125 29.01546875 -3.6875 29.03125 C-7 28.5 -7 28.5 -9.40625 27.09375 C-11.89512053 23.04323521 -11.57987196 19.15919784 -11.5 14.5 C-11.51546875 13.59765625 -11.5309375 12.6953125 -11.546875 11.765625 C-11.52375189 7.85781961 -11.47761928 5.27730196 -9.40625 1.90625 C-6.14779239 0.00195659 -3.75912778 -0.03185702 0 0 Z M-5.73046875 5.55078125 C-7.68351987 8.54946589 -7.39421366 11.60764662 -7.3125 15.0625 C-7.31572266 15.74763672 -7.31894531 16.43277344 -7.32226562 17.13867188 C-7.37978386 21.27555051 -7.37978386 21.27555051 -5 24.5 C-2.63044614 24.81899515 -2.63044614 24.81899515 0 24.75 C1.3303125 24.75773438 1.3303125 24.75773438 2.6875 24.765625 C5.19400239 24.72052862 5.19400239 24.72052862 7 22.5 C7.22555081 19.97207337 7.32438591 17.58944424 7.3125 15.0625 C7.32861328 14.38123047 7.34472656 13.69996094 7.36132812 12.99804688 C7.36416052 10.10616681 7.33300373 8.0112888 5.73046875 5.55078125 C3.66228545 4.2949318 2.41081922 4.09760433 0 4.125 C-0.680625 4.11726562 -1.36125 4.10953125 -2.0625 4.1015625 C-4.04871199 4.39685616 -4.04871199 4.39685616 -5.73046875 5.55078125 Z " fill="#000000" transform="translate(563,681.5)"/>
<path d="M0 0 C1.13308594 -0.01933594 2.26617187 -0.03867187 3.43359375 -0.05859375 C6.5625 0.4375 6.5625 0.4375 8.97265625 2.21484375 C10.5625 4.4375 10.5625 4.4375 10.5625 8.4375 C8.9125 8.4375 7.2625 8.4375 5.5625 8.4375 C5.2325 7.4475 4.9025 6.4575 4.5625 5.4375 C1.9225 5.4375 -0.7175 5.4375 -3.4375 5.4375 C-3.81968767 7.09364657 -4.15145102 8.76207024 -4.4375 10.4375 C-2.34556125 12.52943875 2.06427043 11.81885525 4.8984375 11.9609375 C7.5625 12.4375 7.5625 12.4375 9.390625 13.6640625 C10.94793628 16.02079356 10.96258096 17.62843267 10.9375 20.4375 C10.94523437 21.30375 10.95296875 22.17 10.9609375 23.0625 C10.5625 25.4375 10.5625 25.4375 9.4765625 27.2265625 C6.54430953 29.08166132 3.99227481 28.83393609 0.5625 28.8125 C-0.675 28.82023438 -1.9125 28.82796875 -3.1875 28.8359375 C-6.4375 28.4375 -6.4375 28.4375 -8.375 27.1640625 C-9.4375 25.4375 -9.4375 25.4375 -9.4375 21.4375 C-8.1175 21.4375 -6.7975 21.4375 -5.4375 21.4375 C-5.1075 22.0975 -4.7775 22.7575 -4.4375 23.4375 C-1.4675 23.4375 1.5025 23.4375 4.5625 23.4375 C4.94468767 21.78135343 5.27645102 20.11292976 5.5625 18.4375 C3.47056125 16.34556125 -0.93927043 17.05614475 -3.7734375 16.9140625 C-6.4375 16.4375 -6.4375 16.4375 -8.265625 15.2109375 C-9.82293628 12.85420644 -9.83758096 11.24656733 -9.8125 8.4375 C-9.82023437 7.57125 -9.82796875 6.705 -9.8359375 5.8125 C-9.4375 3.4375 -9.4375 3.4375 -8.31640625 1.65234375 C-5.54446915 -0.13990664 -3.27159517 0.0037135 0 0 Z " fill="#000000" transform="translate(459.4375,681.5625)"/>
<path d="M0 0 C2.475 0.495 2.475 0.495 5 1 C5.33 8.26 5.66 15.52 6 23 C8.97 23 11.94 23 15 23 C16.65079442 21.34920558 16.22549447 19.36263821 16.31640625 17.08984375 C16.35830078 16.10048828 16.40019531 15.11113281 16.44335938 14.09179688 C16.48267578 13.05087891 16.52199219 12.00996094 16.5625 10.9375 C16.60568359 9.89271484 16.64886719 8.84792969 16.69335938 7.77148438 C16.79981225 5.18113116 16.9018276 2.59067814 17 0 C18.32 0 19.64 0 21 0 C21.08694042 4.10403363 21.14037149 8.20783129 21.1875 12.3125 C21.21263672 13.47974609 21.23777344 14.64699219 21.26367188 15.84960938 C21.27333984 16.96787109 21.28300781 18.08613281 21.29296875 19.23828125 C21.3086792 20.26993408 21.32438965 21.30158691 21.34057617 22.36450195 C21 25 21 25 19.68261719 26.83300781 C16.94147379 28.73414906 14.33792536 28.43406304 11.0625 28.4375 C9.83660156 28.45683594 8.61070312 28.47617187 7.34765625 28.49609375 C3.36197437 27.90545011 2.44367842 27.12534473 0 24 C-0.45410156 21.34277344 -0.45410156 21.34277344 -0.390625 18.359375 C-0.37773437 17.28945313 -0.36484375 16.21953125 -0.3515625 15.1171875 C-0.31804687 14.00601563 -0.28453125 12.89484375 -0.25 11.75 C-0.23195313 10.62335937 -0.21390625 9.49671875 -0.1953125 8.3359375 C-0.14820222 5.55643104 -0.08243361 2.7786466 0 0 Z " fill="#000000" transform="translate(493,682)"/>
<path d="M0 0 C6.6 0 13.2 0 20 0 C20 1.32 20 2.64 20 4 C17.36 4 14.72 4 12 4 C12 11.92 12 19.84 12 28 C10.68 28 9.36 28 8 28 C8 20.08 8 12.16 8 4 C5.36 4 2.72 4 0 4 C0 2.68 0 1.36 0 0 Z " fill="#000000" transform="translate(471,682)"/>
<path d="M0 0 C1.32 0 2.64 0 4 0 C4 9.24 4 18.48 4 28 C2.68 28 1.36 28 0 28 C0 18.76 0 9.52 0 0 Z " fill="#000000" transform="translate(544,682)"/>
</svg>
